<?xml version="1.0" encoding="UTF-8"?>
<!DOCTYPE svg PUBLIC "-//W3C//DTD SVG 1.1//EN" "http://www.w3.org/Graphics/SVG/1.1/DTD/svg11.dtd">
<!-- Creator: CorelDRAW 2019 (64-Bit) -->
<svg xmlns="http://www.w3.org/2000/svg" xml:space="preserve" width="322px" height="253px" version="1.1" style="shape-rendering:geometricPrecision; text-rendering:geometricPrecision; image-rendering:optimizeQuality; fill-rule:evenodd; clip-rule:evenodd"
viewBox="0 0 322.02 253.41"
 xmlns:xlink="http://www.w3.org/1999/xlink">
 <defs>
  <style type="text/css">
   <![CDATA[
    .str0 {stroke:#2B2A29;stroke-width:0.41;stroke-miterlimit:10}
    .fil0 {fill:none;fill-rule:nonzero}
    .fil1 {fill:#2B2A29;fill-rule:nonzero}
   ]]>
  </style>
 </defs>
 <g id="Logo">
  <metadata id="CorelCorpID_0Corel-Layer"/>
  <line class="fil0" x1="0" y1="186.4" x2="322.02" y2= "186.4" />
  <line class="fil0 str0" x1="0" y1="186.4" x2="322.02" y2= "186.4" />
  <line class="fil0" x1="0" y1="235.53" x2="322.02" y2= "235.53" />
  <line class="fil0 str0" x1="0" y1="235.53" x2="322.02" y2= "235.53" />
  <path class="fil1" d="M105.51 251.86c-0.01,0.03 -0.03,0.05 -0.05,0.07 -0.02,0.02 -0.05,0.03 -0.08,0.05 -0.03,0.01 -0.07,0.01 -0.12,0.02 -0.05,0.01 -0.1,0.01 -0.16,0.01 -0.05,0 -0.09,0 -0.12,0 -0.04,-0.01 -0.07,-0.01 -0.1,-0.02 -0.03,0 -0.05,-0.01 -0.07,-0.01 -0.02,-0.01 -0.04,-0.02 -0.06,-0.03 -0.02,-0.01 -0.03,-0.02 -0.04,-0.04 -0.01,-0.01 -0.02,-0.03 -0.03,-0.05l-2.36 -6.55c-0.02,-0.05 -0.03,-0.1 -0.02,-0.13 0,-0.03 0.01,-0.06 0.04,-0.08 0.02,-0.01 0.06,-0.03 0.11,-0.03 0.05,-0.01 0.11,-0.01 0.19,-0.01 0.07,0 0.13,0 0.17,0.01 0.04,0 0.07,0.01 0.09,0.02 0.02,0.01 0.04,0.03 0.06,0.04 0.01,0.02 0.02,0.04 0.03,0.07l2.14 6.06 0 0 2.08 -6.06c0.01,-0.03 0.01,-0.05 0.02,-0.07 0.02,-0.01 0.03,-0.03 0.06,-0.04 0.03,-0.01 0.06,-0.02 0.11,-0.02 0.05,-0.01 0.11,-0.01 0.18,-0.01 0.08,0 0.15,0 0.19,0.01 0.05,0.01 0.09,0.02 0.11,0.04 0.02,0.02 0.02,0.04 0.02,0.07 0,0.03 -0.01,0.08 -0.03,0.13l-2.36 6.55z"/>
  <path class="fil1" d="M112.93 251.87c0,0.02 0,0.04 -0.01,0.06 -0.01,0.02 -0.03,0.03 -0.05,0.04 -0.03,0.01 -0.06,0.02 -0.1,0.03 -0.04,0 -0.09,0.01 -0.16,0.01 -0.06,0 -0.11,-0.01 -0.15,-0.01 -0.04,-0.01 -0.07,-0.02 -0.1,-0.03 -0.02,-0.01 -0.04,-0.02 -0.05,-0.04 -0.01,-0.02 -0.01,-0.04 -0.01,-0.06l0 -4.81c0,-0.03 0,-0.05 0.01,-0.06 0.01,-0.02 0.03,-0.04 0.05,-0.05 0.03,-0.01 0.06,-0.02 0.1,-0.03 0.04,0 0.09,0 0.15,0 0.07,0 0.12,0 0.16,0 0.04,0.01 0.07,0.02 0.1,0.03 0.02,0.01 0.04,0.03 0.05,0.05 0.01,0.01 0.01,0.03 0.01,0.06l0 4.81zm0.1 -6.44c0,0.17 -0.03,0.29 -0.09,0.35 -0.06,0.06 -0.17,0.09 -0.33,0.09 -0.16,0 -0.27,-0.03 -0.32,-0.09 -0.06,-0.06 -0.09,-0.17 -0.09,-0.34 0,-0.17 0.03,-0.29 0.09,-0.35 0.06,-0.06 0.17,-0.09 0.33,-0.09 0.15,0 0.26,0.03 0.32,0.09 0.06,0.06 0.09,0.17 0.09,0.34z"/>
  <path class="fil1" d="M121.14 249.03c0.01,-0.51 -0.11,-0.91 -0.35,-1.2 -0.25,-0.29 -0.6,-0.43 -1.07,-0.43 -0.24,0 -0.45,0.05 -0.64,0.14 -0.18,0.09 -0.33,0.21 -0.46,0.36 -0.13,0.14 -0.22,0.32 -0.29,0.51 -0.07,0.2 -0.11,0.41 -0.12,0.62l2.93 0zm0.65 0.18c0,0.13 -0.03,0.22 -0.1,0.27 -0.07,0.05 -0.13,0.07 -0.2,0.07l-3.28 0c0,0.3 0.03,0.57 0.09,0.81 0.06,0.24 0.16,0.45 0.29,0.62 0.14,0.17 0.31,0.3 0.53,0.39 0.21,0.1 0.48,0.14 0.8,0.14 0.22,0 0.42,-0.02 0.6,-0.06 0.17,-0.03 0.33,-0.08 0.46,-0.13 0.13,-0.04 0.23,-0.09 0.32,-0.13 0.08,-0.04 0.14,-0.05 0.17,-0.05 0.02,0 0.04,0 0.06,0.01 0.02,0.01 0.03,0.03 0.04,0.05 0.02,0.02 0.02,0.05 0.03,0.09 0,0.04 0.01,0.08 0.01,0.13 0,0.03 -0.01,0.05 -0.01,0.07 0,0.03 -0.01,0.05 -0.01,0.07 -0.01,0.02 -0.02,0.04 -0.03,0.05 -0.01,0.02 -0.02,0.04 -0.04,0.06 -0.02,0.01 -0.07,0.05 -0.16,0.09 -0.1,0.04 -0.22,0.09 -0.37,0.13 -0.14,0.05 -0.32,0.09 -0.51,0.12 -0.2,0.04 -0.41,0.06 -0.64,0.06 -0.37,0 -0.7,-0.06 -0.99,-0.17 -0.29,-0.11 -0.53,-0.28 -0.72,-0.5 -0.2,-0.21 -0.35,-0.48 -0.45,-0.81 -0.1,-0.32 -0.15,-0.69 -0.15,-1.12 0,-0.41 0.05,-0.77 0.16,-1.1 0.1,-0.32 0.25,-0.59 0.45,-0.82 0.19,-0.22 0.43,-0.39 0.7,-0.51 0.28,-0.12 0.58,-0.18 0.92,-0.18 0.36,0 0.67,0.06 0.93,0.18 0.25,0.12 0.46,0.28 0.63,0.49 0.16,0.2 0.28,0.44 0.36,0.71 0.07,0.27 0.11,0.55 0.11,0.85l0 0.12z"/>
  <path class="fil1" d="M130.29 251.87c0,0.02 0,0.04 -0.01,0.06 -0.01,0.02 -0.03,0.03 -0.05,0.04 -0.03,0.01 -0.06,0.02 -0.1,0.03 -0.04,0 -0.09,0.01 -0.15,0.01 -0.06,0 -0.12,-0.01 -0.16,-0.01 -0.04,-0.01 -0.07,-0.02 -0.09,-0.03 -0.03,-0.01 -0.04,-0.02 -0.05,-0.04 -0.01,-0.02 -0.02,-0.04 -0.02,-0.06l0 -2.86c0,-0.3 -0.02,-0.54 -0.07,-0.72 -0.05,-0.19 -0.11,-0.35 -0.21,-0.48 -0.09,-0.14 -0.21,-0.24 -0.35,-0.31 -0.14,-0.07 -0.31,-0.11 -0.5,-0.11 -0.25,0 -0.49,0.09 -0.74,0.26 -0.24,0.17 -0.5,0.43 -0.77,0.77l0 3.45c0,0.02 0,0.04 -0.01,0.06 -0.01,0.02 -0.03,0.03 -0.05,0.04 -0.03,0.01 -0.06,0.02 -0.1,0.03 -0.04,0 -0.09,0.01 -0.16,0.01 -0.06,0 -0.11,-0.01 -0.15,-0.01 -0.04,-0.01 -0.07,-0.02 -0.1,-0.03 -0.02,-0.01 -0.04,-0.02 -0.05,-0.04 -0.01,-0.02 -0.01,-0.04 -0.01,-0.06l0 -4.81c0,-0.03 0,-0.05 0.01,-0.06 0.01,-0.02 0.03,-0.04 0.05,-0.05 0.03,-0.01 0.06,-0.02 0.1,-0.03 0.03,0 0.08,0 0.14,0 0.06,0 0.11,0 0.15,0 0.04,0.01 0.07,0.02 0.09,0.03 0.02,0.01 0.04,0.03 0.05,0.05 0.01,0.01 0.01,0.03 0.01,0.06l0 0.68c0.28,-0.31 0.55,-0.54 0.81,-0.67 0.27,-0.14 0.53,-0.21 0.8,-0.21 0.31,0 0.58,0.05 0.79,0.16 0.22,0.1 0.4,0.25 0.53,0.43 0.13,0.18 0.23,0.39 0.29,0.63 0.05,0.24 0.08,0.53 0.08,0.87l0 2.92z"/>
  <path class="fil1" d="M139.07 251.87c0,0.02 0,0.04 -0.01,0.06 -0.01,0.02 -0.03,0.03 -0.05,0.04 -0.03,0.01 -0.06,0.02 -0.1,0.03 -0.04,0 -0.09,0.01 -0.15,0.01 -0.07,0 -0.12,-0.01 -0.16,-0.01 -0.04,-0.01 -0.07,-0.02 -0.09,-0.03 -0.03,-0.01 -0.04,-0.02 -0.05,-0.04 -0.01,-0.02 -0.02,-0.04 -0.02,-0.06l0 -2.86c0,-0.3 -0.02,-0.54 -0.07,-0.72 -0.05,-0.19 -0.11,-0.35 -0.21,-0.48 -0.09,-0.14 -0.21,-0.24 -0.35,-0.31 -0.14,-0.07 -0.31,-0.11 -0.5,-0.11 -0.25,0 -0.49,0.09 -0.74,0.26 -0.24,0.17 -0.5,0.43 -0.77,0.77l0 3.45c0,0.02 0,0.04 -0.01,0.06 -0.02,0.02 -0.03,0.03 -0.06,0.04 -0.02,0.01 -0.05,0.02 -0.09,0.03 -0.04,0 -0.09,0.01 -0.16,0.01 -0.06,0 -0.11,-0.01 -0.15,-0.01 -0.04,-0.01 -0.07,-0.02 -0.1,-0.03 -0.02,-0.01 -0.04,-0.02 -0.05,-0.04 -0.01,-0.02 -0.01,-0.04 -0.01,-0.06l0 -4.81c0,-0.03 0,-0.05 0.01,-0.06 0.01,-0.02 0.03,-0.04 0.05,-0.05 0.03,-0.01 0.06,-0.02 0.09,-0.03 0.04,0 0.09,0 0.15,0 0.06,0 0.11,0 0.15,0 0.04,0.01 0.07,0.02 0.09,0.03 0.02,0.01 0.04,0.03 0.05,0.05 0,0.01 0.01,0.03 0.01,0.06l0 0.68c0.28,-0.31 0.55,-0.54 0.81,-0.67 0.27,-0.14 0.53,-0.21 0.8,-0.21 0.31,0 0.58,0.05 0.79,0.16 0.22,0.1 0.39,0.25 0.53,0.43 0.13,0.18 0.23,0.39 0.28,0.63 0.06,0.24 0.09,0.53 0.09,0.87l0 2.92z"/>
  <path class="fil1" d="M146.65 249.6l-0.88 0c-0.26,0 -0.48,0.02 -0.67,0.07 -0.19,0.04 -0.35,0.11 -0.48,0.2 -0.13,0.09 -0.22,0.19 -0.28,0.32 -0.07,0.12 -0.1,0.26 -0.1,0.42 0,0.28 0.09,0.5 0.27,0.67 0.17,0.16 0.42,0.24 0.74,0.24 0.25,0 0.48,-0.06 0.7,-0.19 0.22,-0.13 0.45,-0.33 0.7,-0.6l0 -1.13zm0.63 2.27c0,0.03 -0.01,0.06 -0.03,0.08 -0.03,0.02 -0.06,0.04 -0.1,0.04 -0.03,0.01 -0.08,0.02 -0.15,0.02 -0.06,0 -0.11,-0.01 -0.15,-0.02 -0.04,0 -0.08,-0.02 -0.1,-0.04 -0.02,-0.02 -0.03,-0.05 -0.03,-0.08l0 -0.54c-0.22,0.24 -0.46,0.42 -0.72,0.54 -0.26,0.13 -0.53,0.2 -0.81,0.2 -0.25,0 -0.48,-0.04 -0.68,-0.1 -0.2,-0.07 -0.37,-0.16 -0.51,-0.28 -0.14,-0.13 -0.24,-0.27 -0.32,-0.45 -0.07,-0.17 -0.11,-0.37 -0.11,-0.58 0,-0.27 0.06,-0.5 0.17,-0.7 0.11,-0.19 0.26,-0.36 0.47,-0.49 0.2,-0.13 0.44,-0.23 0.72,-0.29 0.29,-0.07 0.6,-0.1 0.95,-0.1l0.77 0 0 -0.42c0,-0.2 -0.02,-0.39 -0.07,-0.54 -0.04,-0.16 -0.11,-0.29 -0.2,-0.4 -0.1,-0.11 -0.22,-0.19 -0.38,-0.24 -0.15,-0.05 -0.34,-0.08 -0.56,-0.08 -0.21,0 -0.4,0.03 -0.57,0.08 -0.17,0.05 -0.32,0.11 -0.45,0.17 -0.12,0.06 -0.23,0.12 -0.31,0.17 -0.09,0.06 -0.15,0.08 -0.18,0.08 -0.02,0 -0.04,0 -0.06,-0.01 -0.02,-0.01 -0.03,-0.02 -0.05,-0.04 -0.01,-0.02 -0.02,-0.04 -0.02,-0.07 -0.01,-0.03 -0.01,-0.07 -0.01,-0.11 0,-0.08 0.01,-0.14 0.02,-0.18 0.01,-0.05 0.03,-0.09 0.08,-0.13 0.04,-0.05 0.12,-0.1 0.23,-0.16 0.12,-0.06 0.25,-0.12 0.4,-0.17 0.14,-0.05 0.3,-0.09 0.47,-0.12 0.17,-0.04 0.34,-0.05 0.51,-0.05 0.33,0 0.61,0.04 0.84,0.12 0.22,0.08 0.41,0.19 0.55,0.34 0.14,0.15 0.24,0.33 0.3,0.55 0.06,0.22 0.09,0.47 0.09,0.74l0 3.26z"/>
  <path class="fil1" d="M157.8 253.21c-0.02,0.04 -0.04,0.08 -0.06,0.1 -0.01,0.03 -0.04,0.05 -0.06,0.06 -0.03,0.01 -0.06,0.02 -0.1,0.03 -0.04,0 -0.08,0.01 -0.14,0.01 -0.05,0 -0.1,-0.01 -0.14,-0.02 -0.04,-0.01 -0.07,-0.02 -0.1,-0.04 -0.02,-0.02 -0.03,-0.05 -0.04,-0.08 -0.01,-0.03 0,-0.06 0.02,-0.1l3.24 -8.77c0.02,-0.04 0.03,-0.08 0.05,-0.1 0.02,-0.03 0.04,-0.04 0.07,-0.06 0.02,-0.01 0.06,-0.02 0.1,-0.03 0.03,0 0.08,-0.01 0.13,-0.01 0.06,0 0.1,0.01 0.14,0.02 0.04,0.01 0.07,0.03 0.1,0.04 0.02,0.02 0.03,0.05 0.04,0.08 0.01,0.03 0,0.06 -0.01,0.1l-3.24 8.77z"/>
  <path class="fil1" d="M173.13 245.79l0 0 -1.3 3.7 2.63 0 -1.33 -3.7zm2.86 5.97c0.02,0.05 0.03,0.09 0.03,0.13 -0.01,0.03 -0.02,0.06 -0.04,0.08 -0.02,0.01 -0.06,0.02 -0.11,0.03 -0.05,0 -0.11,0.01 -0.18,0.01 -0.07,0 -0.13,-0.01 -0.18,-0.01 -0.04,-0.01 -0.08,-0.01 -0.1,-0.02 -0.03,-0.01 -0.05,-0.03 -0.06,-0.05 -0.01,-0.01 -0.02,-0.04 -0.03,-0.06l-0.66 -1.84 -3.02 0 -0.64 1.83c0,0.02 -0.01,0.05 -0.03,0.06 -0.01,0.02 -0.03,0.04 -0.06,0.05 -0.02,0.01 -0.06,0.02 -0.1,0.03 -0.05,0 -0.1,0.01 -0.17,0.01 -0.07,0 -0.14,-0.01 -0.19,-0.01 -0.04,-0.01 -0.08,-0.02 -0.1,-0.04 -0.03,-0.02 -0.04,-0.04 -0.04,-0.07 0,-0.04 0.01,-0.08 0.03,-0.13l2.41 -6.55c0.01,-0.03 0.02,-0.05 0.05,-0.07 0.02,-0.02 0.04,-0.04 0.08,-0.05 0.03,-0.01 0.07,-0.02 0.12,-0.02 0.05,-0.01 0.1,-0.01 0.16,-0.01 0.07,0 0.12,0 0.17,0.01 0.05,0 0.09,0.01 0.12,0.02 0.04,0.01 0.06,0.03 0.08,0.05 0.02,0.02 0.04,0.04 0.05,0.07l2.41 6.55z"/>
  <path class="fil1" d="M184.09 251.87c0,0.02 0,0.04 -0.01,0.06 -0.01,0.02 -0.03,0.03 -0.05,0.04 -0.03,0.01 -0.06,0.02 -0.1,0.03 -0.04,0 -0.08,0.01 -0.14,0.01 -0.07,0 -0.12,-0.01 -0.16,-0.01 -0.03,-0.01 -0.06,-0.02 -0.09,-0.03 -0.02,-0.01 -0.03,-0.02 -0.04,-0.04 -0.01,-0.02 -0.01,-0.04 -0.01,-0.06l0 -0.68c-0.28,0.31 -0.55,0.53 -0.82,0.67 -0.26,0.14 -0.52,0.21 -0.79,0.21 -0.31,0 -0.58,-0.06 -0.79,-0.16 -0.22,-0.11 -0.39,-0.25 -0.53,-0.44 -0.13,-0.18 -0.23,-0.39 -0.28,-0.63 -0.06,-0.24 -0.09,-0.53 -0.09,-0.88l0 -2.9c0,-0.03 0,-0.05 0.01,-0.06 0.01,-0.02 0.03,-0.04 0.05,-0.05 0.03,-0.01 0.06,-0.02 0.1,-0.03 0.04,0 0.09,0 0.15,0 0.06,0 0.12,0 0.16,0 0.04,0.01 0.07,0.02 0.09,0.03 0.03,0.01 0.04,0.03 0.05,0.05 0.02,0.01 0.02,0.03 0.02,0.06l0 2.85c0,0.29 0.02,0.54 0.07,0.72 0.05,0.19 0.12,0.35 0.21,0.49 0.09,0.13 0.21,0.23 0.35,0.31 0.14,0.07 0.31,0.1 0.5,0.1 0.25,0 0.49,-0.08 0.74,-0.26 0.24,-0.17 0.5,-0.43 0.77,-0.76l0 -3.45c0,-0.03 0,-0.05 0.01,-0.06 0.01,-0.02 0.03,-0.04 0.05,-0.05 0.03,-0.01 0.06,-0.02 0.1,-0.03 0.04,0 0.09,0 0.16,0 0.06,0 0.11,0 0.15,0 0.04,0.01 0.07,0.02 0.1,0.03 0.02,0.01 0.04,0.03 0.05,0.05 0.01,0.01 0.01,0.03 0.01,0.06l0 4.81z"/>
  <path class="fil1" d="M191.82 250.59c0,0.23 -0.05,0.43 -0.13,0.62 -0.09,0.18 -0.21,0.33 -0.37,0.46 -0.15,0.13 -0.34,0.23 -0.56,0.29 -0.22,0.07 -0.47,0.11 -0.73,0.11 -0.17,0 -0.33,-0.02 -0.47,-0.04 -0.15,-0.03 -0.29,-0.06 -0.41,-0.1 -0.12,-0.05 -0.22,-0.09 -0.31,-0.14 -0.08,-0.04 -0.14,-0.08 -0.18,-0.12 -0.04,-0.03 -0.07,-0.08 -0.08,-0.13 -0.02,-0.05 -0.03,-0.12 -0.03,-0.21 0,-0.05 0,-0.09 0.01,-0.13 0.01,-0.03 0.02,-0.06 0.03,-0.09 0.01,-0.02 0.02,-0.04 0.04,-0.05 0.02,-0.01 0.04,-0.02 0.06,-0.02 0.04,0 0.09,0.02 0.17,0.07 0.07,0.05 0.17,0.11 0.28,0.17 0.11,0.05 0.24,0.11 0.4,0.16 0.15,0.05 0.33,0.07 0.53,0.07 0.16,0 0.31,-0.01 0.45,-0.05 0.13,-0.04 0.25,-0.09 0.35,-0.16 0.1,-0.07 0.18,-0.16 0.23,-0.27 0.05,-0.12 0.08,-0.25 0.08,-0.39 0,-0.15 -0.03,-0.28 -0.1,-0.38 -0.07,-0.11 -0.17,-0.2 -0.28,-0.27 -0.12,-0.08 -0.25,-0.14 -0.4,-0.2 -0.14,-0.06 -0.29,-0.12 -0.45,-0.18 -0.15,-0.07 -0.3,-0.13 -0.45,-0.21 -0.15,-0.07 -0.28,-0.16 -0.39,-0.27 -0.12,-0.11 -0.21,-0.23 -0.28,-0.38 -0.07,-0.15 -0.11,-0.33 -0.11,-0.54 0,-0.17 0.03,-0.33 0.1,-0.49 0.06,-0.16 0.16,-0.31 0.29,-0.44 0.13,-0.12 0.3,-0.23 0.51,-0.3 0.21,-0.08 0.45,-0.12 0.74,-0.12 0.12,0 0.24,0.01 0.36,0.03 0.12,0.02 0.22,0.04 0.32,0.07 0.1,0.04 0.18,0.07 0.25,0.11 0.08,0.04 0.13,0.07 0.17,0.1 0.03,0.02 0.06,0.05 0.07,0.07 0.01,0.02 0.02,0.04 0.03,0.06 0,0.02 0.01,0.05 0.01,0.08 0,0.03 0.01,0.06 0.01,0.11 0,0.04 -0.01,0.08 -0.01,0.11 -0.01,0.03 -0.02,0.06 -0.03,0.09 -0.01,0.02 -0.02,0.04 -0.04,0.05 -0.01,0.02 -0.03,0.02 -0.05,0.02 -0.03,0 -0.07,-0.02 -0.13,-0.06 -0.06,-0.03 -0.13,-0.08 -0.22,-0.12 -0.09,-0.05 -0.2,-0.09 -0.33,-0.13 -0.13,-0.04 -0.28,-0.06 -0.44,-0.06 -0.17,0 -0.32,0.02 -0.44,0.06 -0.13,0.04 -0.23,0.09 -0.31,0.16 -0.09,0.07 -0.15,0.16 -0.19,0.25 -0.04,0.1 -0.06,0.2 -0.06,0.32 0,0.15 0.04,0.28 0.11,0.39 0.07,0.11 0.16,0.2 0.28,0.28 0.12,0.08 0.25,0.15 0.4,0.2 0.15,0.07 0.3,0.13 0.45,0.19 0.16,0.06 0.31,0.12 0.46,0.2 0.15,0.07 0.28,0.16 0.4,0.26 0.11,0.1 0.21,0.22 0.28,0.37 0.07,0.14 0.11,0.32 0.11,0.52z"/>
  <path class="fil1" d="M198.82 251.58c0,0.08 -0.01,0.14 -0.02,0.18 -0.01,0.05 -0.03,0.09 -0.06,0.11 -0.03,0.03 -0.07,0.05 -0.12,0.08 -0.05,0.02 -0.11,0.04 -0.18,0.05 -0.06,0.02 -0.13,0.03 -0.21,0.04 -0.07,0.01 -0.15,0.02 -0.22,0.02 -0.23,0 -0.44,-0.04 -0.6,-0.1 -0.17,-0.06 -0.31,-0.16 -0.41,-0.29 -0.11,-0.13 -0.19,-0.29 -0.23,-0.49 -0.05,-0.2 -0.08,-0.43 -0.08,-0.7l0 -3 -0.71 0c-0.05,0 -0.09,-0.02 -0.12,-0.07 -0.03,-0.04 -0.04,-0.11 -0.04,-0.2 0,-0.04 0,-0.08 0.01,-0.11 0,-0.04 0.01,-0.07 0.03,-0.09 0.01,-0.02 0.03,-0.04 0.05,-0.05 0.02,-0.01 0.04,-0.02 0.07,-0.02l0.71 0 0 -1.18c0,-0.02 0.01,-0.04 0.02,-0.06 0.01,-0.01 0.02,-0.03 0.05,-0.04 0.02,-0.01 0.05,-0.02 0.1,-0.03 0.04,0 0.09,-0.01 0.15,-0.01 0.06,0 0.11,0.01 0.15,0.01 0.05,0.01 0.08,0.02 0.1,0.03 0.02,0.01 0.04,0.03 0.05,0.04 0.01,0.02 0.02,0.04 0.02,0.06l0 1.18 1.33 0c0.02,0 0.04,0.01 0.06,0.02 0.02,0.01 0.04,0.03 0.05,0.05 0.02,0.02 0.03,0.05 0.04,0.09 0,0.03 0.01,0.07 0.01,0.11 0,0.09 -0.02,0.16 -0.05,0.2 -0.03,0.05 -0.07,0.07 -0.11,0.07l-1.33 0 0 2.91c0,0.37 0.05,0.64 0.15,0.84 0.11,0.19 0.3,0.28 0.58,0.28 0.08,0 0.16,-0.01 0.23,-0.02 0.07,-0.02 0.13,-0.04 0.18,-0.06 0.05,-0.02 0.1,-0.04 0.14,-0.06 0.03,-0.02 0.07,-0.03 0.09,-0.03 0.02,0 0.04,0.01 0.05,0.01 0.02,0.01 0.03,0.02 0.04,0.04 0.01,0.02 0.01,0.05 0.02,0.08 0,0.03 0.01,0.07 0.01,0.11z"/>
  <path class="fil1" d="M205.88 247.3c0,0.05 0,0.1 0,0.14 0,0.03 -0.01,0.06 -0.02,0.09 -0.01,0.02 -0.02,0.04 -0.03,0.05 -0.01,0.01 -0.03,0.02 -0.05,0.02 -0.03,0 -0.07,-0.01 -0.11,-0.03 -0.05,-0.01 -0.1,-0.03 -0.15,-0.05 -0.06,-0.01 -0.12,-0.03 -0.19,-0.05 -0.07,-0.01 -0.14,-0.02 -0.22,-0.02 -0.1,0 -0.19,0.02 -0.28,0.06 -0.1,0.04 -0.19,0.11 -0.29,0.2 -0.1,0.09 -0.21,0.21 -0.32,0.36 -0.11,0.14 -0.24,0.33 -0.37,0.54l0 3.26c0,0.02 -0.01,0.04 -0.02,0.06 -0.01,0.02 -0.03,0.03 -0.05,0.04 -0.02,0.01 -0.05,0.02 -0.1,0.03 -0.04,0 -0.09,0.01 -0.15,0.01 -0.06,0 -0.11,-0.01 -0.15,-0.01 -0.04,-0.01 -0.08,-0.02 -0.1,-0.03 -0.03,-0.01 -0.04,-0.02 -0.05,-0.04 -0.01,-0.02 -0.02,-0.04 -0.02,-0.06l0 -4.81c0,-0.03 0.01,-0.05 0.02,-0.06 0.01,-0.02 0.02,-0.04 0.05,-0.05 0.02,-0.01 0.05,-0.02 0.09,-0.02 0.04,-0.01 0.09,-0.01 0.15,-0.01 0.06,0 0.11,0 0.15,0.01 0.04,0 0.07,0.01 0.09,0.02 0.02,0.01 0.03,0.03 0.04,0.05 0.01,0.01 0.02,0.03 0.02,0.06l0 0.76c0.13,-0.21 0.26,-0.37 0.38,-0.49 0.12,-0.13 0.23,-0.22 0.33,-0.29 0.11,-0.07 0.21,-0.12 0.31,-0.14 0.11,-0.03 0.21,-0.04 0.32,-0.04 0.04,0 0.1,0 0.16,0.01 0.06,0 0.12,0.01 0.19,0.03 0.07,0.01 0.13,0.03 0.19,0.05 0.05,0.02 0.09,0.03 0.11,0.05 0.02,0.02 0.04,0.03 0.04,0.04 0.01,0.01 0.02,0.03 0.02,0.05 0.01,0.02 0.01,0.05 0.01,0.08 0,0.03 0,0.08 0,0.13z"/>
  <path class="fil1" d="M210.83 251.87c0,0.02 -0.01,0.04 -0.02,0.06 -0.01,0.02 -0.02,0.03 -0.05,0.04 -0.02,0.01 -0.05,0.02 -0.09,0.03 -0.04,0 -0.1,0.01 -0.16,0.01 -0.06,0 -0.11,-0.01 -0.15,-0.01 -0.04,-0.01 -0.08,-0.02 -0.1,-0.03 -0.03,-0.01 -0.04,-0.02 -0.05,-0.04 -0.01,-0.02 -0.01,-0.04 -0.01,-0.06l0 -4.81c0,-0.03 0,-0.05 0.01,-0.06 0.01,-0.02 0.02,-0.04 0.05,-0.05 0.02,-0.01 0.06,-0.02 0.1,-0.03 0.04,0 0.09,0 0.15,0 0.06,0 0.12,0 0.16,0 0.04,0.01 0.07,0.02 0.09,0.03 0.03,0.01 0.04,0.03 0.05,0.05 0.01,0.01 0.02,0.03 0.02,0.06l0 4.81zm0.09 -6.44c0,0.17 -0.03,0.29 -0.09,0.35 -0.06,0.06 -0.17,0.09 -0.33,0.09 -0.15,0 -0.26,-0.03 -0.32,-0.09 -0.06,-0.06 -0.09,-0.17 -0.09,-0.34 0,-0.17 0.03,-0.29 0.09,-0.35 0.07,-0.06 0.18,-0.09 0.33,-0.09 0.16,0 0.27,0.03 0.33,0.09 0.05,0.06 0.08,0.17 0.08,0.34z"/>
  <path class="fil1" d="M218.44 249.6l-0.88 0c-0.26,0 -0.48,0.02 -0.67,0.07 -0.19,0.04 -0.35,0.11 -0.48,0.2 -0.13,0.09 -0.22,0.19 -0.28,0.32 -0.07,0.12 -0.1,0.26 -0.1,0.42 0,0.28 0.09,0.5 0.27,0.67 0.17,0.16 0.42,0.24 0.74,0.24 0.25,0 0.49,-0.06 0.7,-0.19 0.22,-0.13 0.45,-0.33 0.7,-0.6l0 -1.13zm0.63 2.27c0,0.03 -0.01,0.06 -0.03,0.08 -0.03,0.02 -0.06,0.04 -0.09,0.04 -0.04,0.01 -0.09,0.02 -0.16,0.02 -0.06,0 -0.11,-0.01 -0.15,-0.02 -0.04,0 -0.08,-0.02 -0.1,-0.04 -0.02,-0.02 -0.03,-0.05 -0.03,-0.08l0 -0.54c-0.22,0.24 -0.46,0.42 -0.72,0.54 -0.26,0.13 -0.53,0.2 -0.81,0.2 -0.25,0 -0.48,-0.04 -0.68,-0.1 -0.2,-0.07 -0.37,-0.16 -0.51,-0.28 -0.13,-0.13 -0.24,-0.27 -0.32,-0.45 -0.07,-0.17 -0.11,-0.37 -0.11,-0.58 0,-0.27 0.06,-0.5 0.17,-0.7 0.11,-0.19 0.26,-0.36 0.47,-0.49 0.2,-0.13 0.44,-0.23 0.72,-0.29 0.29,-0.07 0.6,-0.1 0.95,-0.1l0.77 0 0 -0.42c0,-0.2 -0.02,-0.39 -0.07,-0.54 -0.04,-0.16 -0.11,-0.29 -0.2,-0.4 -0.1,-0.11 -0.22,-0.19 -0.38,-0.24 -0.15,-0.05 -0.34,-0.08 -0.55,-0.08 -0.22,0 -0.41,0.03 -0.58,0.08 -0.17,0.05 -0.32,0.11 -0.45,0.17 -0.12,0.06 -0.23,0.12 -0.31,0.17 -0.09,0.06 -0.15,0.08 -0.18,0.08 -0.02,0 -0.04,0 -0.06,-0.01 -0.02,-0.01 -0.03,-0.02 -0.04,-0.04 -0.02,-0.02 -0.03,-0.04 -0.03,-0.07 -0.01,-0.03 -0.01,-0.07 -0.01,-0.11 0,-0.08 0.01,-0.14 0.02,-0.18 0.01,-0.05 0.04,-0.09 0.08,-0.13 0.04,-0.05 0.12,-0.1 0.24,-0.16 0.11,-0.06 0.24,-0.12 0.39,-0.17 0.14,-0.05 0.3,-0.09 0.47,-0.12 0.17,-0.04 0.34,-0.05 0.51,-0.05 0.33,0 0.61,0.04 0.84,0.12 0.23,0.08 0.41,0.19 0.55,0.34 0.14,0.15 0.24,0.33 0.3,0.55 0.06,0.22 0.09,0.47 0.09,0.74l0 3.26z"/>
  <path class="fil1" d="M17.39 223.78c0,0.17 -0.01,0.32 -0.04,0.45 -0.02,0.14 -0.06,0.25 -0.12,0.34 -0.05,0.1 -0.12,0.17 -0.19,0.21 -0.07,0.05 -0.15,0.07 -0.24,0.07l-11.12 0c-0.22,0 -0.45,-0.09 -0.68,-0.27 -0.23,-0.18 -0.35,-0.51 -0.35,-0.98l0 -23.32c0,-0.48 0.12,-0.81 0.35,-0.98 0.23,-0.18 0.46,-0.27 0.68,-0.27l10.96 0c0.08,0 0.16,0.02 0.23,0.07 0.08,0.04 0.14,0.11 0.19,0.2 0.05,0.1 0.08,0.21 0.11,0.35 0.02,0.14 0.03,0.31 0.03,0.49 0,0.18 -0.01,0.33 -0.03,0.46 -0.03,0.14 -0.06,0.24 -0.11,0.33 -0.05,0.09 -0.11,0.15 -0.19,0.2 -0.07,0.05 -0.15,0.07 -0.23,0.07l-9.75 0 0 9.08 8.41 0c0.09,0 0.18,0.03 0.25,0.07 0.08,0.05 0.14,0.12 0.19,0.2 0.05,0.09 0.08,0.2 0.11,0.34 0.02,0.14 0.03,0.3 0.03,0.49 0,0.17 -0.01,0.32 -0.03,0.45 -0.03,0.13 -0.06,0.23 -0.11,0.31 -0.05,0.08 -0.11,0.14 -0.19,0.18 -0.07,0.04 -0.16,0.06 -0.25,0.06l-8.41 0 0 10.3 9.91 0c0.09,0 0.17,0.02 0.24,0.07 0.07,0.04 0.14,0.11 0.19,0.2 0.06,0.08 0.1,0.2 0.12,0.34 0.03,0.14 0.04,0.3 0.04,0.49z"/>
  <path class="fil1" d="M49.77 223.68c0,0.24 -0.04,0.43 -0.11,0.59 -0.06,0.16 -0.15,0.29 -0.25,0.39 -0.11,0.1 -0.22,0.17 -0.35,0.21 -0.13,0.04 -0.25,0.06 -0.36,0.06l-0.46 0c-0.24,0 -0.47,-0.03 -0.67,-0.1 -0.2,-0.06 -0.4,-0.18 -0.59,-0.35 -0.19,-0.16 -0.37,-0.39 -0.56,-0.66 -0.19,-0.28 -0.41,-0.64 -0.64,-1.08l-8.37 -16.13c-0.41,-0.79 -0.83,-1.59 -1.25,-2.43 -0.43,-0.83 -0.83,-1.63 -1.21,-2.42l-0.01 0c0.01,0.97 0.01,1.97 0.01,2.98l0 2.99 0 16.72c0,0.08 -0.01,0.16 -0.05,0.22 -0.04,0.07 -0.1,0.12 -0.18,0.16 -0.09,0.04 -0.2,0.08 -0.34,0.1 -0.14,0.03 -0.32,0.04 -0.54,0.04 -0.21,0 -0.39,-0.01 -0.54,-0.04 -0.14,-0.02 -0.26,-0.06 -0.35,-0.1 -0.08,-0.04 -0.14,-0.09 -0.18,-0.16 -0.04,-0.06 -0.05,-0.14 -0.05,-0.22l0 -24.17c0,-0.48 0.11,-0.81 0.34,-0.98 0.24,-0.19 0.46,-0.27 0.68,-0.27l0.92 0c0.29,0 0.54,0.02 0.74,0.08 0.19,0.05 0.37,0.14 0.53,0.26 0.16,0.13 0.31,0.31 0.47,0.54 0.15,0.24 0.32,0.53 0.5,0.89l6.41 12.36c0.4,0.77 0.78,1.51 1.14,2.22 0.36,0.71 0.71,1.41 1.06,2.1 0.34,0.68 0.68,1.36 1.02,2.02 0.33,0.67 0.67,1.34 1,2.02l0.01 0c-0.01,-1.12 -0.01,-2.28 -0.01,-3.49l0 -3.5 0 -15.03c0,-0.08 0.01,-0.15 0.05,-0.21 0.04,-0.07 0.1,-0.13 0.18,-0.18 0.09,-0.04 0.2,-0.07 0.34,-0.09 0.14,-0.02 0.33,-0.03 0.55,-0.03 0.19,0 0.36,0.01 0.51,0.03 0.15,0.02 0.26,0.05 0.35,0.09 0.08,0.05 0.15,0.11 0.19,0.18 0.04,0.06 0.07,0.13 0.07,0.21l0 24.18z"/>
  <path class="fil1" d="M83.81 223.68c0,0.24 -0.03,0.43 -0.1,0.59 -0.07,0.16 -0.15,0.29 -0.26,0.39 -0.1,0.1 -0.22,0.17 -0.35,0.21 -0.13,0.04 -0.24,0.06 -0.35,0.06l-0.46 0c-0.25,0 -0.47,-0.03 -0.67,-0.1 -0.2,-0.06 -0.4,-0.18 -0.59,-0.35 -0.19,-0.16 -0.38,-0.39 -0.57,-0.66 -0.19,-0.28 -0.4,-0.64 -0.63,-1.08l-8.37 -16.13c-0.42,-0.79 -0.84,-1.59 -1.26,-2.43 -0.42,-0.83 -0.82,-1.63 -1.2,-2.42l-0.02 0c0.01,0.97 0.02,1.97 0.02,2.98l0 2.99 0 16.72c0,0.08 -0.02,0.16 -0.06,0.22 -0.03,0.07 -0.09,0.12 -0.18,0.16 -0.08,0.04 -0.2,0.08 -0.34,0.1 -0.14,0.03 -0.32,0.04 -0.54,0.04 -0.21,0 -0.39,-0.01 -0.53,-0.04 -0.15,-0.02 -0.27,-0.06 -0.35,-0.1 -0.09,-0.04 -0.15,-0.09 -0.18,-0.16 -0.04,-0.06 -0.06,-0.14 -0.06,-0.22l0 -24.17c0,-0.48 0.12,-0.81 0.35,-0.98 0.23,-0.19 0.46,-0.27 0.68,-0.27l0.92 0c0.29,0 0.53,0.02 0.73,0.08 0.2,0.05 0.37,0.14 0.53,0.26 0.16,0.13 0.32,0.31 0.47,0.54 0.15,0.24 0.32,0.53 0.5,0.89l6.41 12.36c0.4,0.77 0.79,1.51 1.15,2.22 0.36,0.71 0.71,1.41 1.05,2.1 0.34,0.68 0.68,1.36 1.02,2.02 0.34,0.67 0.67,1.34 1,2.02l0.02 0c-0.01,-1.12 -0.02,-2.28 -0.02,-3.49l0 -3.5 0 -15.03c0,-0.08 0.02,-0.15 0.06,-0.21 0.03,-0.07 0.09,-0.13 0.18,-0.18 0.08,-0.04 0.2,-0.07 0.34,-0.09 0.14,-0.02 0.32,-0.03 0.54,-0.03 0.2,0 0.37,0.01 0.51,0.03 0.15,0.02 0.27,0.05 0.35,0.09 0.09,0.05 0.15,0.11 0.2,0.18 0.04,0.06 0.06,0.13 0.06,0.21l0 24.18z"/>
  <path class="fil1" d="M107.7 214.67l0 9.78c0,0.08 -0.02,0.16 -0.06,0.22 -0.03,0.07 -0.1,0.12 -0.18,0.16 -0.09,0.04 -0.2,0.08 -0.35,0.1 -0.15,0.03 -0.32,0.04 -0.53,0.04 -0.22,0 -0.4,-0.01 -0.54,-0.04 -0.14,-0.02 -0.26,-0.06 -0.35,-0.1 -0.09,-0.04 -0.16,-0.09 -0.2,-0.16 -0.03,-0.06 -0.05,-0.14 -0.05,-0.22l0 -9.78 -6.83 -14.83c-0.08,-0.2 -0.13,-0.36 -0.14,-0.48 -0.02,-0.12 0.01,-0.21 0.08,-0.28 0.07,-0.06 0.18,-0.11 0.34,-0.13 0.16,-0.03 0.36,-0.04 0.6,-0.04 0.27,0 0.49,0.01 0.66,0.03 0.16,0.02 0.29,0.05 0.4,0.09 0.1,0.04 0.18,0.09 0.23,0.16 0.05,0.06 0.1,0.14 0.15,0.23l3.63 8.05c0.34,0.76 0.68,1.54 1.02,2.35 0.33,0.82 0.67,1.63 1.02,2.46l0.03 0c0.32,-0.79 0.65,-1.58 0.98,-2.38 0.33,-0.79 0.66,-1.59 1,-2.37l3.68 -8.11c0.03,-0.09 0.07,-0.17 0.12,-0.23 0.05,-0.07 0.12,-0.12 0.21,-0.16 0.08,-0.04 0.19,-0.07 0.33,-0.09 0.15,-0.02 0.32,-0.03 0.53,-0.03 0.29,0 0.53,0.01 0.71,0.04 0.19,0.02 0.32,0.07 0.39,0.15 0.07,0.07 0.1,0.16 0.09,0.28 -0.01,0.12 -0.06,0.28 -0.15,0.46l-6.82 14.83z"/>
  <path class="fil1" d="M162.33 217.83c0,-0.85 -0.13,-1.61 -0.38,-2.26 -0.25,-0.65 -0.62,-1.2 -1.1,-1.64 -0.48,-0.43 -1.08,-0.77 -1.79,-0.99 -0.71,-0.23 -1.59,-0.34 -2.64,-0.34l-4.28 0 0 10.08 5.18 0c0.76,0 1.43,-0.11 2.01,-0.31 0.58,-0.21 1.09,-0.51 1.54,-0.92 0.45,-0.41 0.8,-0.91 1.06,-1.52 0.27,-0.6 0.4,-1.3 0.4,-2.1zm-1.54 -12.14c0,-0.68 -0.09,-1.29 -0.26,-1.84 -0.17,-0.56 -0.44,-1.03 -0.82,-1.42 -0.37,-0.39 -0.86,-0.7 -1.46,-0.91 -0.59,-0.21 -1.4,-0.32 -2.4,-0.32l-3.71 0 0 9.26 4.08 0c0.89,0 1.61,-0.13 2.16,-0.39 0.55,-0.26 1.01,-0.61 1.36,-1.04 0.36,-0.44 0.62,-0.95 0.79,-1.53 0.17,-0.58 0.26,-1.18 0.26,-1.81zm3.92 11.94c0,0.76 -0.08,1.46 -0.24,2.11 -0.17,0.66 -0.4,1.25 -0.71,1.78 -0.31,0.53 -0.68,1 -1.12,1.42 -0.44,0.41 -0.94,0.76 -1.5,1.05 -0.55,0.28 -1.15,0.5 -1.8,0.64 -0.65,0.15 -1.4,0.22 -2.26,0.22l-6.15 0c-0.22,0 -0.44,-0.09 -0.68,-0.27 -0.23,-0.18 -0.35,-0.51 -0.35,-0.98l0 -23.32c0,-0.48 0.12,-0.81 0.35,-0.99 0.24,-0.17 0.46,-0.26 0.68,-0.26l5.1 0c1.39,0 2.51,0.15 3.36,0.45 0.86,0.31 1.57,0.75 2.12,1.31 0.56,0.57 0.97,1.25 1.25,2.06 0.28,0.8 0.41,1.7 0.41,2.68 0,0.61 -0.06,1.2 -0.19,1.76 -0.13,0.56 -0.32,1.08 -0.58,1.56 -0.25,0.47 -0.58,0.91 -0.96,1.29 -0.39,0.39 -0.84,0.72 -1.37,0.98 0.64,0.13 1.24,0.38 1.8,0.75 0.56,0.37 1.06,0.83 1.48,1.39 0.42,0.56 0.75,1.2 1,1.94 0.24,0.74 0.36,1.55 0.36,2.43z"/>
  <path class="fil1" d="M192.97 223.78c0,0.17 -0.01,0.32 -0.04,0.45 -0.02,0.14 -0.06,0.25 -0.11,0.34 -0.06,0.1 -0.12,0.17 -0.2,0.21 -0.07,0.05 -0.15,0.07 -0.24,0.07l-11.12 0c-0.22,0 -0.44,-0.09 -0.68,-0.27 -0.23,-0.18 -0.35,-0.51 -0.35,-0.98l0 -23.32c0,-0.48 0.12,-0.81 0.35,-0.98 0.24,-0.18 0.46,-0.27 0.68,-0.27l10.96 0c0.08,0 0.16,0.02 0.24,0.07 0.07,0.04 0.13,0.11 0.18,0.2 0.05,0.1 0.09,0.21 0.11,0.35 0.03,0.14 0.04,0.31 0.04,0.49 0,0.18 -0.01,0.33 -0.04,0.46 -0.02,0.14 -0.06,0.24 -0.11,0.33 -0.05,0.09 -0.11,0.15 -0.18,0.2 -0.08,0.05 -0.16,0.07 -0.24,0.07l-9.75 0 0 9.08 8.41 0c0.1,0 0.18,0.03 0.26,0.07 0.07,0.05 0.13,0.12 0.18,0.2 0.05,0.09 0.08,0.2 0.11,0.34 0.02,0.14 0.04,0.3 0.04,0.49 0,0.17 -0.02,0.32 -0.04,0.45 -0.03,0.13 -0.06,0.23 -0.11,0.31 -0.05,0.08 -0.11,0.14 -0.18,0.18 -0.08,0.04 -0.16,0.06 -0.26,0.06l-8.41 0 0 10.3 9.91 0c0.09,0 0.17,0.02 0.24,0.07 0.08,0.04 0.14,0.11 0.2,0.2 0.05,0.08 0.09,0.2 0.11,0.34 0.03,0.14 0.04,0.3 0.04,0.49z"/>
  <path class="fil1" d="M216.81 201.64l-0.02 0 -4.47 13.89 9.08 0 -4.59 -13.89zm9.86 22.4c0.07,0.19 0.11,0.36 0.1,0.48 -0.01,0.13 -0.05,0.23 -0.13,0.29 -0.08,0.07 -0.2,0.11 -0.37,0.13 -0.16,0.02 -0.37,0.03 -0.63,0.03 -0.26,0 -0.46,-0.01 -0.61,-0.03 -0.16,-0.02 -0.28,-0.05 -0.36,-0.09 -0.09,-0.04 -0.15,-0.09 -0.2,-0.16 -0.04,-0.06 -0.08,-0.14 -0.11,-0.24l-2.28 -6.88 -10.42 0 -2.19 6.84c-0.02,0.1 -0.06,0.18 -0.11,0.24 -0.05,0.07 -0.11,0.13 -0.2,0.17 -0.09,0.05 -0.2,0.09 -0.36,0.11 -0.15,0.03 -0.34,0.04 -0.58,0.04 -0.25,0 -0.47,-0.01 -0.64,-0.04 -0.17,-0.02 -0.29,-0.07 -0.37,-0.14 -0.08,-0.06 -0.13,-0.16 -0.13,-0.28 -0.01,-0.12 0.02,-0.28 0.1,-0.47l8.31 -24.58c0.04,-0.1 0.09,-0.19 0.17,-0.26 0.07,-0.08 0.17,-0.13 0.28,-0.17 0.12,-0.04 0.26,-0.07 0.42,-0.09 0.17,-0.02 0.35,-0.03 0.56,-0.03 0.22,0 0.42,0.01 0.58,0.03 0.17,0.02 0.31,0.05 0.42,0.09 0.12,0.04 0.21,0.09 0.28,0.17 0.07,0.07 0.12,0.16 0.15,0.26l8.32 24.58z"/>
  <path class="fil1" d="M257.45 215.35c0,1.57 -0.2,2.97 -0.61,4.19 -0.41,1.23 -1,2.26 -1.76,3.1 -0.76,0.84 -1.67,1.47 -2.75,1.9 -1.08,0.44 -2.28,0.65 -3.62,0.65 -1.21,0 -2.32,-0.2 -3.34,-0.62 -1.03,-0.41 -1.91,-1.02 -2.65,-1.82 -0.74,-0.81 -1.31,-1.81 -1.72,-3 -0.41,-1.19 -0.62,-2.56 -0.62,-4.12l0 -16.21c0,-0.08 0.02,-0.15 0.06,-0.21 0.03,-0.07 0.1,-0.13 0.19,-0.16 0.09,-0.04 0.21,-0.08 0.34,-0.1 0.13,-0.03 0.31,-0.04 0.53,-0.04 0.21,0 0.39,0.01 0.53,0.04 0.15,0.02 0.27,0.06 0.35,0.1 0.09,0.03 0.15,0.09 0.19,0.16 0.03,0.06 0.05,0.13 0.05,0.21l0 15.81c0,1.29 0.15,2.42 0.43,3.4 0.29,0.97 0.71,1.78 1.25,2.42 0.55,0.65 1.21,1.13 1.98,1.46 0.78,0.32 1.66,0.49 2.64,0.49 0.99,0 1.87,-0.16 2.65,-0.47 0.78,-0.31 1.43,-0.79 1.97,-1.43 0.54,-0.64 0.95,-1.43 1.24,-2.38 0.29,-0.96 0.43,-2.07 0.43,-3.35l0 -15.95c0,-0.08 0.02,-0.15 0.06,-0.21 0.03,-0.07 0.09,-0.13 0.18,-0.16 0.09,-0.04 0.2,-0.08 0.35,-0.1 0.15,-0.03 0.32,-0.04 0.53,-0.04 0.21,0 0.39,0.01 0.53,0.04 0.15,0.02 0.27,0.06 0.35,0.1 0.09,0.03 0.15,0.09 0.19,0.16 0.03,0.06 0.05,0.13 0.05,0.21l0 15.93z"/>
  <path class="fil1" d="M289.44 200.14c0,0.18 -0.01,0.33 -0.03,0.46 -0.03,0.14 -0.06,0.24 -0.11,0.33 -0.05,0.09 -0.11,0.15 -0.19,0.2 -0.07,0.05 -0.15,0.07 -0.23,0.07l-7.09 0 0 23.25c0,0.08 -0.02,0.16 -0.05,0.22 -0.04,0.07 -0.1,0.12 -0.19,0.16 -0.08,0.04 -0.2,0.08 -0.35,0.1 -0.14,0.03 -0.32,0.04 -0.53,0.04 -0.21,0 -0.38,-0.01 -0.53,-0.04 -0.15,-0.02 -0.26,-0.06 -0.35,-0.1 -0.08,-0.04 -0.15,-0.09 -0.18,-0.16 -0.04,-0.06 -0.06,-0.14 -0.06,-0.22l0 -23.25 -7.08 0c-0.1,0 -0.18,-0.02 -0.25,-0.07 -0.07,-0.05 -0.13,-0.11 -0.17,-0.2 -0.05,-0.09 -0.09,-0.19 -0.11,-0.33 -0.03,-0.13 -0.04,-0.28 -0.04,-0.46 0,-0.18 0.01,-0.35 0.04,-0.49 0.02,-0.14 0.06,-0.25 0.11,-0.35 0.04,-0.09 0.1,-0.16 0.17,-0.2 0.07,-0.05 0.15,-0.07 0.25,-0.07l16.41 0c0.08,0 0.16,0.02 0.23,0.07 0.08,0.04 0.14,0.11 0.19,0.2 0.05,0.1 0.08,0.21 0.11,0.35 0.02,0.14 0.03,0.31 0.03,0.49z"/>
  <path class="fil1" d="M311.92 214.67l0 9.78c0,0.08 -0.02,0.16 -0.06,0.22 -0.03,0.07 -0.09,0.12 -0.18,0.16 -0.09,0.04 -0.2,0.08 -0.35,0.1 -0.15,0.03 -0.32,0.04 -0.53,0.04 -0.22,0 -0.4,-0.01 -0.54,-0.04 -0.14,-0.02 -0.26,-0.06 -0.35,-0.1 -0.09,-0.04 -0.16,-0.09 -0.19,-0.16 -0.04,-0.06 -0.06,-0.14 -0.06,-0.22l0 -9.78 -6.83 -14.83c-0.08,-0.2 -0.13,-0.36 -0.14,-0.48 -0.02,-0.12 0.01,-0.21 0.08,-0.28 0.07,-0.06 0.18,-0.11 0.34,-0.13 0.16,-0.03 0.36,-0.04 0.61,-0.04 0.26,0 0.48,0.01 0.65,0.03 0.16,0.02 0.3,0.05 0.4,0.09 0.1,0.04 0.18,0.09 0.23,0.16 0.05,0.06 0.1,0.14 0.15,0.23l3.63 8.05c0.34,0.76 0.68,1.54 1.02,2.35 0.34,0.82 0.68,1.63 1.02,2.46l0.03 0c0.32,-0.79 0.65,-1.58 0.98,-2.38 0.33,-0.79 0.66,-1.59 1.01,-2.37l3.67 -8.11c0.03,-0.09 0.08,-0.17 0.13,-0.23 0.04,-0.07 0.11,-0.12 0.2,-0.16 0.08,-0.04 0.2,-0.07 0.34,-0.09 0.14,-0.02 0.31,-0.03 0.52,-0.03 0.29,0 0.53,0.01 0.72,0.04 0.18,0.02 0.31,0.07 0.38,0.15 0.07,0.07 0.11,0.16 0.09,0.28 -0.01,0.12 -0.06,0.28 -0.14,0.46l-6.83 14.83z"/>
  <path class="fil1" d="M102.26 125.58l0 15.73c0,6.27 0.16,10.83 0.48,13.69 0.32,2.87 0.94,5.26 1.86,7.18 1.55,3.3 3.92,5.71 7.11,7.24 3.18,1.54 7.38,2.3 12.6,2.3 5.49,0 10.09,-0.69 13.8,-2.09 3.7,-1.4 6.73,-3.56 9.06,-6.49 1.65,-1.97 2.99,-4.21 4.02,-6.73 1.03,-2.51 1.98,-5.83 2.85,-9.95l1.58 0.06 -0.9 27.33 -81.91 0 0 -1.58c2.61,-0.13 4.72,-0.5 6.35,-1.09 1.62,-0.6 3.08,-1.56 4.36,-2.89 1.42,-1.46 2.39,-3.33 2.92,-5.6 0.52,-2.26 0.79,-5.73 0.79,-10.4l0 -50.6c0,-4.67 -0.27,-8.14 -0.79,-10.41 -0.53,-2.26 -1.5,-4.13 -2.92,-5.59 -1.24,-1.33 -2.67,-2.29 -4.29,-2.89 -1.63,-0.59 -3.77,-0.96 -6.42,-1.1l0 -1.57 73.81 0 1.17 22.65 -1.58 0.07c-0.6,-3.84 -1.58,-7.02 -2.95,-9.54 -1.38,-2.52 -3.37,-4.74 -5.98,-6.66 -2.15,-1.6 -4.69,-2.74 -7.62,-3.4 -2.93,-0.66 -6.82,-1 -11.67,-1l-15.73 0 0 41.2 0 2.13z"/>
  <path class="fil1" d="M220.73 165.68c-4.28,4.03 -10.11,6.04 -17.48,6.04 -5.67,0 -9.68,-1.53 -12.01,-4.6 -1.1,-1.46 -1.89,-3.25 -2.37,-5.35 -0.48,-2.11 -0.72,-4.88 -0.72,-8.31l0 -28.29 12.29 0c8.79,0 15.24,1.69 19.36,5.08 2.24,1.83 4.03,4.45 5.36,7.86 1.32,3.41 1.99,7.11 1.99,11.09 0,6.96 -2.14,12.45 -6.42,16.48zm-32.58 -83.43l6.38 0c4.9,0 8.55,0.28 10.95,0.83 2.41,0.55 4.55,1.58 6.42,3.09 2.16,1.74 3.88,4.18 5.19,7.31 1.3,3.14 1.95,6.44 1.95,9.92 0,3.3 -0.62,6.31 -1.88,9.03 -1.26,2.73 -3.06,4.96 -5.39,6.7 -1.24,0.87 -2.6,1.55 -4.09,2.06 -1.49,0.5 -3.44,0.94 -5.87,1.3 -2.79,0.37 -5.49,0.55 -8.1,0.55l-5.56 0 0 -40.79zm61.96 55.79c-1.63,-3.55 -3.91,-6.51 -6.84,-8.89 -1.97,-1.56 -6.02,-3.63 -9.05,-4.4 -4.62,-1.18 -8.65,-1.71 -16.55,-2.12 3.21,-1.14 5.65,-2.19 7.35,-3.12 1.69,-0.94 3.2,-2.12 4.53,-3.54 3.71,-3.85 5.56,-8.77 5.56,-14.76 0,-3.71 -0.81,-7.05 -2.44,-10.03 -1.62,-2.97 -3.92,-5.38 -6.9,-7.21 -3.43,-2.06 -7.76,-3.3 -12.97,-3.71 -1.42,-0.09 -4.42,-0.13 -9,-0.13l-45.11 0 0 1.58c2.61,0.13 4.74,0.5 6.38,1.09 1.65,0.6 3.09,1.56 4.33,2.89 1.47,1.46 2.45,3.32 2.95,5.56 0.51,2.24 0.76,5.72 0.76,10.44l0 50.6c0,4.72 -0.25,8.2 -0.76,10.44 -0.5,2.24 -1.48,4.1 -2.95,5.56 -1.24,1.28 -2.67,2.23 -4.29,2.85 -1.63,0.62 -3.77,1 -6.42,1.13l0 1.58 50.19 0c6.78,0 14.47,-0.02 18.27,-0.29 7.19,-0.5 12.45,-1.84 15.92,-4.24 2.99,-2.08 5.3,-4.89 6.97,-8.35 1.67,-3.45 2.5,-7.26 2.5,-11.43 0,-4.12 -0.81,-7.95 -2.43,-11.5z"/>
  <path class="fil1" d="M132.73 122.12c-4.17,0 -7.3,-0.27 -9.41,-0.82 -2.1,-0.55 -3.82,-1.53 -5.15,-2.95 -1.28,-1.33 -2.23,-2.9 -2.85,-4.71 -0.62,-1.8 -1.13,-4.47 -1.54,-8l-1.75 0 0 36.88 0.44 0 1.31 0 0.27 0c0.41,-3.53 1.02,-6.37 1.82,-8.52 0.8,-2.15 1.91,-3.98 3.33,-5.49 1.37,-1.47 3.16,-2.54 5.36,-3.23 2.19,-0.68 4.99,-1.03 8.37,-1.03l45.05 0 0 -2.13 -45.25 0z"/>
  <path class="fil1" d="M197.72 24.85c-1.23,0 -2.23,1.13 -2.23,2.52 0,0.6 0.19,1.17 0.53,1.63 -1.93,2.59 -3.95,5.07 -6,7.39 -2.5,2.82 -5.12,5.48 -7.81,7.92 -0.87,-5.29 -1.62,-10.68 -2.23,-16.04 -0.4,-3.5 -0.75,-7.08 -1.04,-10.64 1.01,-0.24 1.77,-1.26 1.77,-2.47 0,-1.39 -1,-2.52 -2.23,-2.52 -1.24,0 -2.24,1.13 -2.24,2.52 0,0.63 0.21,1.23 0.58,1.7 -1.51,3.25 -3.13,6.43 -4.8,9.46 -1.64,2.94 -3.37,5.83 -5.17,8.57 -1.36,-4.9 -2.65,-9.9 -3.84,-14.89 -1.09,-4.62 -2.69,-12.3 -3.3,-15.24 0.74,-0.42 1.22,-1.28 1.22,-2.24 0,-1.39 -1.01,-2.52 -2.24,-2.52 -1.24,0 -2.24,1.13 -2.24,2.52 0,0.96 0.48,1.82 1.21,2.24 -0.61,2.94 -2.2,10.62 -3.3,15.24 -1.18,4.99 -2.47,9.99 -3.84,14.89 -1.79,-2.74 -3.53,-5.63 -5.16,-8.57 -1.63,-2.93 -3.19,-6.02 -4.66,-9.16 0.54,-0.48 0.87,-1.21 0.87,-2 0,-1.39 -1.01,-2.52 -2.24,-2.52 -1.24,0 -2.24,1.13 -2.24,2.52 0,1.03 0.55,1.93 1.36,2.32 -0.29,3.61 -0.65,7.24 -1.05,10.79 -0.61,5.36 -1.36,10.75 -2.23,16.04 -2.69,-2.44 -5.31,-5.1 -7.81,-7.92 -2.05,-2.32 -4.06,-4.8 -5.99,-7.38 0.33,-0.45 0.52,-1.02 0.52,-1.62 0,-1.39 -1,-2.52 -2.24,-2.52 -1.23,0 -2.24,1.13 -2.24,2.52 0,1.43 1.06,2.58 2.33,2.52 0.67,3.45 1.27,6.95 1.77,10.42 0.61,4.15 1.12,8.4 1.5,12.61l0.04 0.38 71.28 0 0.03 -0.38c0.39,-4.21 0.89,-8.46 1.5,-12.61 0.51,-3.48 1.11,-6.99 1.79,-10.44 0.02,0 0.05,0 0.07,0 1.24,0 2.24,-1.13 2.24,-2.52 0,-1.39 -1,-2.52 -2.24,-2.52z"/>
  <polygon class="fil1" points="123.86,63.53 193.51,63.53 194.41,57.82 122.97,57.82 "/>
 </g>
</svg>
