<svg width="282" height="222" viewBox="0 0 282 222" fill="none" xmlns="http://www.w3.org/2000/svg">
<g clip-path="url(#clip0_333_762)">
<path d="M0.0035553 163.297H281.996" stroke="white" stroke-width="1.00526" stroke-miterlimit="10"/>
<path d="M0.0035553 206.333H281.996" stroke="white" stroke-width="1.00526" stroke-miterlimit="10"/>
<path d="M92.4021 220.643C92.3939 220.667 92.3776 220.692 92.3612 220.708C92.3449 220.724 92.3203 220.741 92.2876 220.749C92.2549 220.757 92.2222 220.765 92.1814 220.773C92.1405 220.782 92.0915 220.782 92.0424 220.782C92.0016 220.782 91.9689 220.782 91.9362 220.782C91.9035 220.782 91.8789 220.773 91.8544 220.773C91.8299 220.765 91.8054 220.765 91.789 220.757C91.7727 220.749 91.7563 220.741 91.74 220.733C91.7236 220.724 91.7155 220.716 91.6991 220.7C91.6909 220.684 91.6828 220.675 91.6746 220.651L89.6066 214.91C89.5902 214.861 89.5821 214.829 89.5821 214.796C89.5821 214.763 89.5984 214.747 89.6148 214.731C89.6393 214.714 89.672 214.706 89.7128 214.698C89.7537 214.69 89.8109 214.69 89.8845 214.69C89.9417 214.69 89.9908 214.69 90.0235 214.698C90.0562 214.706 90.0889 214.706 90.1052 214.722C90.1215 214.731 90.1379 214.747 90.1542 214.763C90.1624 214.78 90.1788 214.796 90.1869 214.821L92.0588 220.127H92.0669L93.8816 214.821C93.8897 214.796 93.8979 214.78 93.9061 214.763C93.9143 214.747 93.9306 214.739 93.9551 214.722C93.9796 214.714 94.0123 214.706 94.0532 214.698C94.0941 214.69 94.1431 214.69 94.2085 214.69C94.2821 214.69 94.3393 214.69 94.3802 214.698C94.421 214.706 94.4537 214.714 94.4701 214.731C94.4864 214.747 94.4946 214.771 94.4946 214.796C94.4946 214.821 94.4864 214.861 94.4619 214.91L92.4021 220.651V220.643Z" fill="white"/>
<path d="M98.9004 220.651C98.9004 220.667 98.8922 220.683 98.884 220.7C98.8758 220.716 98.8595 220.724 98.8431 220.741C98.8268 220.749 98.7941 220.757 98.7614 220.765C98.7287 220.773 98.6797 220.773 98.6224 220.773C98.5734 220.773 98.5244 220.773 98.4917 220.765C98.459 220.757 98.4263 220.749 98.4017 220.741C98.3772 220.733 98.3691 220.716 98.3609 220.7C98.3527 220.683 98.3527 220.667 98.3527 220.651V216.431C98.3527 216.415 98.3527 216.399 98.3609 216.382C98.3691 216.366 98.3854 216.35 98.4017 216.341C98.4263 216.333 98.4508 216.325 98.4917 216.317C98.5244 216.309 98.5734 216.309 98.6224 216.309C98.6797 216.309 98.7205 216.309 98.7614 216.317C98.7941 216.325 98.8268 216.333 98.8431 216.341C98.8595 216.35 98.8758 216.366 98.884 216.382C98.8922 216.399 98.9004 216.415 98.9004 216.431V220.651ZM98.9821 215.009C98.9821 215.156 98.9576 215.262 98.9004 215.311C98.8513 215.36 98.7532 215.393 98.6143 215.393C98.4753 215.393 98.3854 215.368 98.3364 215.319C98.2873 215.27 98.2628 215.172 98.2628 215.017C98.2628 214.87 98.2873 214.763 98.3445 214.714C98.3936 214.665 98.4917 214.632 98.6306 214.632C98.7696 214.632 98.8595 214.657 98.9085 214.706C98.9576 214.755 98.9821 214.853 98.9821 215.009Z" fill="white"/>
<path d="M106.085 218.165C106.093 217.715 105.995 217.372 105.775 217.118C105.562 216.865 105.251 216.742 104.835 216.742C104.622 216.742 104.434 216.783 104.279 216.865C104.115 216.947 103.985 217.045 103.87 217.175C103.764 217.306 103.674 217.454 103.617 217.633C103.559 217.805 103.527 217.985 103.51 218.173H106.069L106.085 218.165ZM106.657 218.328C106.657 218.443 106.625 218.517 106.567 218.557C106.51 218.598 106.453 218.623 106.396 218.623H103.519C103.519 218.884 103.543 219.122 103.592 219.334C103.641 219.547 103.731 219.727 103.846 219.874C103.96 220.021 104.115 220.144 104.303 220.217C104.491 220.299 104.728 220.34 104.998 220.34C105.194 220.34 105.366 220.324 105.521 220.291C105.677 220.258 105.807 220.217 105.922 220.176C106.036 220.136 106.126 220.095 106.2 220.062C106.273 220.029 106.322 220.013 106.355 220.013C106.371 220.013 106.388 220.021 106.404 220.029C106.42 220.037 106.429 220.054 106.445 220.07C106.453 220.087 106.461 220.119 106.469 220.144C106.478 220.176 106.478 220.217 106.478 220.258C106.478 220.283 106.478 220.299 106.469 220.324C106.469 220.34 106.461 220.365 106.461 220.381C106.453 220.397 106.453 220.414 106.437 220.43C106.429 220.446 106.412 220.463 106.396 220.479C106.379 220.495 106.33 220.52 106.249 220.561C106.167 220.602 106.061 220.643 105.93 220.675C105.799 220.716 105.652 220.749 105.472 220.782C105.301 220.814 105.113 220.831 104.916 220.831C104.589 220.831 104.303 220.782 104.05 220.683C103.797 220.585 103.584 220.438 103.412 220.25C103.241 220.062 103.11 219.825 103.02 219.539C102.93 219.252 102.889 218.925 102.889 218.557C102.889 218.198 102.938 217.879 103.028 217.601C103.118 217.314 103.249 217.077 103.421 216.881C103.592 216.685 103.797 216.529 104.042 216.431C104.279 216.325 104.549 216.276 104.843 216.276C105.162 216.276 105.431 216.325 105.652 216.431C105.873 216.538 106.061 216.677 106.208 216.857C106.355 217.036 106.461 217.241 106.527 217.478C106.592 217.715 106.625 217.96 106.625 218.222V218.337L106.657 218.328Z" fill="white"/>
<path d="M114.104 220.651C114.104 220.667 114.096 220.683 114.088 220.7C114.079 220.716 114.063 220.724 114.047 220.741C114.022 220.749 113.998 220.757 113.965 220.765C113.932 220.773 113.883 220.773 113.834 220.773C113.777 220.773 113.736 220.773 113.695 220.765C113.662 220.757 113.63 220.749 113.613 220.741C113.597 220.733 113.581 220.716 113.573 220.7C113.564 220.683 113.556 220.667 113.556 220.651V218.149C113.556 217.887 113.532 217.674 113.499 217.511C113.458 217.347 113.401 217.208 113.319 217.094C113.237 216.979 113.131 216.889 113.009 216.824C112.886 216.758 112.739 216.726 112.567 216.726C112.355 216.726 112.142 216.799 111.921 216.955C111.709 217.11 111.48 217.331 111.243 217.625V220.651C111.243 220.667 111.235 220.683 111.227 220.7C111.218 220.716 111.202 220.724 111.186 220.741C111.169 220.749 111.137 220.757 111.104 220.765C111.071 220.773 111.022 220.773 110.965 220.773C110.916 220.773 110.867 220.773 110.834 220.765C110.802 220.757 110.769 220.749 110.744 220.741C110.72 220.733 110.712 220.716 110.704 220.7C110.695 220.683 110.695 220.667 110.695 220.651V216.431C110.695 216.415 110.695 216.399 110.704 216.382C110.712 216.366 110.728 216.35 110.744 216.341C110.769 216.333 110.793 216.325 110.826 216.317C110.859 216.309 110.9 216.309 110.957 216.309C111.006 216.309 111.055 216.309 111.088 216.317C111.12 216.325 111.145 216.333 111.169 216.341C111.186 216.35 111.202 216.366 111.21 216.382C111.218 216.399 111.218 216.415 111.218 216.431V217.028C111.464 216.758 111.701 216.562 111.93 216.44C112.158 216.317 112.396 216.26 112.624 216.26C112.902 216.26 113.131 216.309 113.319 216.399C113.507 216.489 113.662 216.619 113.777 216.775C113.891 216.93 113.973 217.118 114.03 217.331C114.079 217.543 114.104 217.797 114.104 218.091V220.643V220.651Z" fill="white"/>
<path d="M121.787 220.651C121.787 220.667 121.779 220.683 121.771 220.7C121.763 220.716 121.747 220.724 121.73 220.741C121.706 220.749 121.681 220.757 121.648 220.765C121.616 220.773 121.567 220.773 121.518 220.773C121.46 220.773 121.42 220.773 121.379 220.765C121.346 220.757 121.313 220.749 121.297 220.741C121.281 220.733 121.264 220.716 121.256 220.7C121.248 220.683 121.24 220.667 121.24 220.651V218.149C121.24 217.887 121.215 217.674 121.183 217.511C121.142 217.347 121.084 217.208 121.003 217.094C120.921 216.979 120.815 216.889 120.692 216.824C120.569 216.758 120.422 216.726 120.251 216.726C120.038 216.726 119.826 216.799 119.605 216.955C119.392 217.11 119.164 217.331 118.927 217.625V220.651C118.927 220.667 118.918 220.683 118.91 220.7C118.902 220.716 118.886 220.724 118.869 220.741C118.853 220.749 118.82 220.757 118.788 220.765C118.755 220.773 118.706 220.773 118.649 220.773C118.6 220.773 118.551 220.773 118.518 220.765C118.485 220.757 118.452 220.749 118.428 220.741C118.403 220.733 118.395 220.716 118.387 220.7C118.379 220.683 118.379 220.667 118.379 220.651V216.431C118.379 216.415 118.379 216.399 118.387 216.382C118.395 216.366 118.412 216.35 118.428 216.341C118.452 216.333 118.477 216.325 118.51 216.317C118.542 216.309 118.583 216.309 118.64 216.309C118.689 216.309 118.739 216.309 118.771 216.317C118.804 216.325 118.828 216.333 118.853 216.341C118.869 216.35 118.886 216.366 118.894 216.382C118.902 216.399 118.902 216.415 118.902 216.431V217.028C119.147 216.758 119.384 216.562 119.613 216.44C119.842 216.317 120.079 216.26 120.308 216.26C120.586 216.26 120.815 216.309 121.003 216.399C121.191 216.489 121.346 216.619 121.46 216.775C121.575 216.93 121.657 217.118 121.714 217.331C121.763 217.543 121.787 217.797 121.787 218.091V220.643V220.651Z" fill="white"/>
<path d="M128.425 218.664H127.656C127.436 218.664 127.239 218.68 127.068 218.721C126.904 218.762 126.757 218.819 126.651 218.901C126.536 218.983 126.455 219.073 126.406 219.179C126.348 219.285 126.324 219.408 126.324 219.555C126.324 219.8 126.397 219.988 126.553 220.136C126.708 220.283 126.921 220.356 127.207 220.356C127.427 220.356 127.632 220.299 127.828 220.185C128.016 220.07 128.22 219.898 128.433 219.661V218.672L128.425 218.664ZM128.98 220.651C128.98 220.683 128.972 220.708 128.948 220.724C128.923 220.741 128.899 220.757 128.866 220.765C128.833 220.773 128.792 220.773 128.735 220.773C128.686 220.773 128.637 220.773 128.596 220.765C128.555 220.757 128.531 220.749 128.506 220.724C128.49 220.708 128.474 220.683 128.474 220.651V220.176C128.286 220.381 128.073 220.536 127.844 220.651C127.615 220.765 127.378 220.814 127.133 220.814C126.912 220.814 126.716 220.79 126.536 220.724C126.365 220.667 126.209 220.585 126.095 220.479C125.972 220.373 125.883 220.242 125.817 220.087C125.752 219.931 125.719 219.759 125.719 219.571C125.719 219.342 125.768 219.138 125.866 218.966C125.964 218.795 126.095 218.647 126.275 218.533C126.455 218.418 126.667 218.328 126.912 218.271C127.158 218.214 127.436 218.181 127.738 218.181H128.408V217.821C128.408 217.642 128.392 217.478 128.351 217.347C128.31 217.208 128.253 217.094 128.171 217.004C128.089 216.914 127.975 216.84 127.844 216.791C127.713 216.742 127.55 216.718 127.354 216.718C127.166 216.718 127.002 216.742 126.847 216.783C126.7 216.832 126.569 216.881 126.455 216.938C126.34 216.996 126.25 217.045 126.177 217.086C126.103 217.135 126.054 217.151 126.021 217.151C126.005 217.151 125.989 217.151 125.972 217.143C125.956 217.135 125.94 217.126 125.932 217.11C125.923 217.094 125.915 217.069 125.907 217.045C125.899 217.02 125.899 216.987 125.899 216.947C125.899 216.881 125.907 216.832 125.915 216.791C125.923 216.75 125.948 216.709 125.989 216.677C126.03 216.636 126.095 216.595 126.193 216.538C126.291 216.489 126.406 216.44 126.536 216.39C126.667 216.341 126.806 216.309 126.953 216.284C127.1 216.26 127.248 216.243 127.403 216.243C127.689 216.243 127.934 216.276 128.139 216.35C128.335 216.423 128.498 216.521 128.621 216.652C128.743 216.783 128.833 216.947 128.882 217.135C128.931 217.323 128.964 217.543 128.964 217.781V220.634L128.98 220.651Z" fill="white"/>
<path d="M138.184 221.828C138.168 221.869 138.16 221.894 138.143 221.918C138.127 221.943 138.103 221.959 138.086 221.967C138.062 221.984 138.037 221.992 138.005 221.992C137.972 222 137.931 222 137.882 222C137.833 222 137.792 221.992 137.759 221.984C137.727 221.975 137.694 221.959 137.669 221.943C137.645 221.926 137.637 221.902 137.629 221.877C137.62 221.853 137.629 221.82 137.645 221.787L140.489 214.109C140.506 214.068 140.514 214.044 140.53 214.019C140.547 213.995 140.563 213.978 140.587 213.97C140.612 213.954 140.637 213.946 140.677 213.946C140.71 213.937 140.751 213.937 140.8 213.937C140.849 213.937 140.89 213.946 140.923 213.954C140.955 213.962 140.988 213.978 141.004 213.995C141.021 214.011 141.037 214.035 141.045 214.06C141.053 214.085 141.045 214.117 141.037 214.15L138.193 221.828H138.184Z" fill="white"/>
<path d="M151.614 215.328H151.606L150.47 218.574H152.775L151.614 215.328ZM154.115 220.553C154.132 220.602 154.14 220.634 154.14 220.667C154.14 220.7 154.124 220.716 154.107 220.733C154.091 220.749 154.058 220.757 154.017 220.765C153.976 220.773 153.919 220.773 153.854 220.773C153.788 220.773 153.739 220.773 153.698 220.765C153.658 220.757 153.633 220.757 153.609 220.741C153.584 220.733 153.568 220.716 153.56 220.7C153.551 220.684 153.535 220.667 153.527 220.643L152.946 219.032H150.298L149.742 220.634C149.734 220.659 149.726 220.675 149.718 220.692C149.701 220.708 149.685 220.716 149.669 220.733C149.644 220.741 149.62 220.749 149.579 220.757C149.538 220.765 149.489 220.765 149.432 220.765C149.366 220.765 149.309 220.765 149.268 220.757C149.227 220.749 149.195 220.741 149.17 220.724C149.154 220.708 149.137 220.684 149.137 220.659C149.137 220.634 149.146 220.594 149.162 220.544L151.271 214.804C151.279 214.78 151.295 214.755 151.312 214.739C151.328 214.722 151.353 214.706 151.385 214.698C151.418 214.69 151.451 214.682 151.492 214.673C151.532 214.665 151.581 214.665 151.63 214.665C151.688 214.665 151.737 214.665 151.778 214.673C151.818 214.682 151.859 214.682 151.884 214.698C151.917 214.706 151.933 214.722 151.957 214.739C151.974 214.755 151.99 214.78 151.998 214.804L154.107 220.544L154.115 220.553Z" fill="white"/>
<path d="M161.218 220.651C161.218 220.667 161.218 220.683 161.21 220.7C161.202 220.716 161.186 220.724 161.169 220.741C161.145 220.749 161.12 220.757 161.088 220.765C161.055 220.773 161.014 220.773 160.965 220.773C160.908 220.773 160.867 220.773 160.826 220.765C160.793 220.757 160.769 220.749 160.744 220.741C160.728 220.733 160.712 220.716 160.704 220.7C160.695 220.683 160.695 220.667 160.695 220.651V220.054C160.45 220.324 160.213 220.52 159.984 220.643C159.755 220.765 159.526 220.822 159.289 220.822C159.012 220.822 158.783 220.773 158.586 220.683C158.398 220.594 158.243 220.463 158.129 220.307C158.014 220.152 157.933 219.964 157.875 219.751C157.826 219.539 157.802 219.285 157.802 218.991V216.44C157.802 216.423 157.802 216.407 157.81 216.39C157.818 216.374 157.834 216.358 157.851 216.35C157.875 216.341 157.9 216.333 157.941 216.325C157.973 216.317 158.022 216.317 158.072 216.317C158.129 216.317 158.17 216.317 158.21 216.325C158.243 216.333 158.276 216.341 158.292 216.35C158.309 216.358 158.325 216.374 158.333 216.39C158.341 216.407 158.349 216.423 158.349 216.44V218.934C158.349 219.195 158.366 219.408 158.407 219.571C158.448 219.735 158.505 219.874 158.586 219.997C158.668 220.111 158.774 220.201 158.897 220.266C159.02 220.332 159.167 220.365 159.338 220.365C159.551 220.365 159.764 220.291 159.976 220.136C160.189 219.98 160.417 219.759 160.654 219.465V216.44C160.654 216.423 160.654 216.407 160.663 216.39C160.671 216.374 160.687 216.358 160.704 216.35C160.728 216.341 160.753 216.333 160.793 216.325C160.826 216.317 160.875 216.317 160.932 216.317C160.981 216.317 161.03 216.317 161.063 216.325C161.096 216.333 161.129 216.341 161.145 216.35C161.161 216.358 161.178 216.374 161.186 216.39C161.194 216.407 161.202 216.423 161.202 216.44V220.659L161.218 220.651Z" fill="white"/>
<path d="M167.978 219.53C167.978 219.735 167.937 219.915 167.864 220.07C167.79 220.234 167.684 220.365 167.545 220.479C167.406 220.594 167.243 220.675 167.047 220.733C166.85 220.79 166.638 220.822 166.409 220.822C166.262 220.822 166.123 220.814 165.992 220.79C165.861 220.765 165.747 220.741 165.641 220.7C165.534 220.667 165.444 220.626 165.371 220.585C165.297 220.544 165.24 220.512 165.207 220.479C165.175 220.446 165.15 220.405 165.134 220.365C165.117 220.315 165.109 220.258 165.109 220.176C165.109 220.136 165.109 220.103 165.117 220.07C165.126 220.037 165.134 220.013 165.142 219.988C165.15 219.964 165.167 219.948 165.183 219.939C165.199 219.931 165.216 219.923 165.232 219.923C165.265 219.923 165.314 219.948 165.379 219.988C165.444 220.029 165.526 220.078 165.624 220.127C165.722 220.176 165.837 220.226 165.976 220.266C166.115 220.307 166.27 220.332 166.442 220.332C166.589 220.332 166.711 220.316 166.834 220.283C166.948 220.25 167.055 220.201 167.145 220.144C167.235 220.078 167.3 220.005 167.349 219.907C167.398 219.809 167.423 219.694 167.423 219.563C167.423 219.432 167.39 219.326 167.333 219.236C167.267 219.146 167.185 219.064 167.087 218.999C166.989 218.934 166.875 218.876 166.744 218.819C166.613 218.77 166.483 218.713 166.352 218.664C166.213 218.606 166.082 218.549 165.959 218.484C165.829 218.418 165.714 218.337 165.616 218.247C165.518 218.157 165.436 218.042 165.371 217.911C165.305 217.781 165.281 217.625 165.281 217.437C165.281 217.29 165.305 217.151 165.363 217.004C165.42 216.865 165.502 216.734 165.624 216.628C165.739 216.513 165.894 216.423 166.074 216.358C166.254 216.292 166.474 216.251 166.72 216.251C166.826 216.251 166.932 216.26 167.03 216.276C167.136 216.292 167.226 216.317 167.316 216.341C167.398 216.366 167.472 216.399 167.537 216.431C167.602 216.464 167.643 216.497 167.676 216.521C167.709 216.546 167.733 216.57 167.741 216.587C167.749 216.603 167.758 216.619 167.766 216.644C167.774 216.66 167.774 216.685 167.774 216.709C167.774 216.734 167.782 216.767 167.782 216.808C167.782 216.848 167.782 216.881 167.774 216.906C167.766 216.938 167.766 216.963 167.749 216.979C167.741 217.004 167.725 217.02 167.717 217.028C167.7 217.036 167.684 217.045 167.668 217.045C167.643 217.045 167.602 217.028 167.553 216.996C167.504 216.963 167.439 216.922 167.357 216.881C167.275 216.84 167.177 216.799 167.071 216.767C166.957 216.734 166.834 216.718 166.687 216.718C166.54 216.718 166.409 216.734 166.303 216.767C166.196 216.799 166.098 216.848 166.033 216.914C165.959 216.979 165.91 217.053 165.869 217.135C165.837 217.216 165.812 217.306 165.812 217.413C165.812 217.552 165.845 217.666 165.902 217.756C165.968 217.846 166.049 217.928 166.147 218.001C166.254 218.067 166.368 218.132 166.499 218.181C166.63 218.23 166.76 218.288 166.899 218.337C167.038 218.386 167.169 218.451 167.3 218.508C167.431 218.574 167.545 218.647 167.651 218.737C167.758 218.827 167.839 218.934 167.897 219.064C167.962 219.187 167.987 219.342 167.987 219.522L167.978 219.53Z" fill="white"/>
<path d="M174.109 220.397C174.109 220.463 174.101 220.512 174.092 220.553C174.084 220.594 174.068 220.626 174.043 220.651C174.019 220.675 173.986 220.7 173.945 220.716C173.896 220.733 173.847 220.757 173.79 220.765C173.733 220.782 173.667 220.79 173.602 220.798C173.537 220.806 173.471 220.806 173.414 220.806C173.21 220.806 173.03 220.782 172.883 220.724C172.736 220.667 172.613 220.585 172.523 220.471C172.433 220.356 172.36 220.217 172.319 220.037C172.278 219.866 172.253 219.661 172.253 219.424V216.799H171.624C171.583 216.799 171.542 216.783 171.518 216.742C171.493 216.701 171.477 216.644 171.477 216.57C171.477 216.53 171.477 216.497 171.485 216.464C171.493 216.431 171.501 216.407 171.51 216.39C171.526 216.374 171.534 216.358 171.55 216.35C171.567 216.341 171.583 216.333 171.608 216.333H172.237V215.295C172.237 215.278 172.237 215.262 172.245 215.246C172.253 215.229 172.27 215.213 172.286 215.205C172.311 215.197 172.335 215.188 172.376 215.18C172.409 215.172 172.458 215.172 172.507 215.172C172.564 215.172 172.605 215.172 172.646 215.18C172.678 215.188 172.711 215.197 172.727 215.205C172.744 215.213 172.76 215.229 172.768 215.246C172.776 215.262 172.785 215.278 172.785 215.295V216.333H173.945C173.97 216.333 173.986 216.341 174.003 216.35C174.019 216.358 174.035 216.374 174.043 216.39C174.06 216.407 174.068 216.44 174.068 216.464C174.076 216.497 174.076 216.53 174.076 216.57C174.076 216.652 174.06 216.709 174.035 216.742C174.011 216.783 173.978 216.799 173.937 216.799H172.776V219.351C172.776 219.67 172.826 219.915 172.915 220.087C173.005 220.25 173.177 220.34 173.414 220.34C173.488 220.34 173.553 220.332 173.618 220.315C173.676 220.299 173.733 220.283 173.782 220.266C173.831 220.25 173.872 220.234 173.904 220.217C173.937 220.201 173.97 220.193 173.994 220.193C174.011 220.193 174.027 220.193 174.035 220.201C174.052 220.209 174.06 220.217 174.068 220.234C174.076 220.25 174.084 220.275 174.084 220.299C174.092 220.324 174.092 220.356 174.092 220.397H174.109Z" fill="white"/>
<path d="M180.296 216.644C180.296 216.693 180.296 216.734 180.288 216.767C180.288 216.799 180.28 216.824 180.272 216.848C180.264 216.865 180.256 216.881 180.247 216.897C180.239 216.906 180.223 216.914 180.207 216.914C180.182 216.914 180.149 216.906 180.108 216.889C180.068 216.873 180.027 216.857 179.978 216.848C179.929 216.832 179.871 216.816 179.814 216.808C179.757 216.791 179.692 216.783 179.618 216.783C179.536 216.783 179.455 216.799 179.373 216.84C179.291 216.873 179.209 216.93 179.119 217.012C179.03 217.094 178.94 217.2 178.841 217.323C178.743 217.453 178.637 217.617 178.515 217.805V220.659C178.515 220.675 178.506 220.692 178.498 220.708C178.49 220.724 178.474 220.733 178.457 220.749C178.441 220.757 178.408 220.765 178.376 220.773C178.343 220.782 178.294 220.782 178.237 220.782C178.188 220.782 178.139 220.782 178.106 220.773C178.073 220.765 178.04 220.757 178.016 220.749C177.991 220.741 177.983 220.724 177.975 220.708C177.967 220.692 177.967 220.675 177.967 220.659V216.44C177.967 216.423 177.967 216.407 177.975 216.39C177.983 216.374 178 216.358 178.016 216.35C178.04 216.341 178.065 216.333 178.098 216.325C178.13 216.317 178.171 216.317 178.228 216.317C178.277 216.317 178.327 216.317 178.359 216.325C178.392 216.333 178.416 216.341 178.441 216.35C178.457 216.358 178.474 216.374 178.482 216.39C178.49 216.407 178.49 216.423 178.49 216.44V217.102C178.613 216.922 178.719 216.783 178.825 216.677C178.931 216.57 179.021 216.48 179.119 216.423C179.209 216.366 179.299 216.325 179.389 216.301C179.479 216.276 179.569 216.268 179.659 216.268C179.7 216.268 179.749 216.268 179.798 216.276C179.847 216.284 179.904 216.292 179.97 216.301C180.027 216.317 180.084 216.325 180.133 216.341C180.182 216.358 180.215 216.374 180.231 216.39C180.247 216.407 180.264 216.415 180.272 216.431C180.28 216.44 180.28 216.456 180.288 216.472C180.296 216.489 180.296 216.513 180.296 216.546C180.296 216.579 180.296 216.611 180.296 216.66V216.644Z" fill="white"/>
<path d="M184.629 220.651C184.629 220.667 184.62 220.683 184.612 220.7C184.604 220.716 184.588 220.724 184.571 220.741C184.555 220.749 184.522 220.757 184.49 220.765C184.457 220.773 184.408 220.773 184.351 220.773C184.302 220.773 184.253 220.773 184.22 220.765C184.187 220.757 184.155 220.749 184.13 220.741C184.106 220.733 184.097 220.716 184.089 220.7C184.081 220.683 184.081 220.667 184.081 220.651V216.431C184.081 216.415 184.081 216.399 184.089 216.382C184.097 216.366 184.114 216.35 184.13 216.341C184.155 216.333 184.179 216.325 184.22 216.317C184.253 216.309 184.302 216.309 184.351 216.309C184.408 216.309 184.449 216.309 184.49 216.317C184.522 216.325 184.555 216.333 184.571 216.341C184.588 216.35 184.604 216.366 184.612 216.382C184.62 216.399 184.629 216.415 184.629 216.431V220.651ZM184.71 215.009C184.71 215.156 184.686 215.262 184.629 215.311C184.58 215.36 184.482 215.393 184.343 215.393C184.204 215.393 184.114 215.368 184.065 215.319C184.016 215.27 183.991 215.172 183.991 215.017C183.991 214.87 184.016 214.763 184.073 214.714C184.122 214.665 184.22 214.632 184.359 214.632C184.498 214.632 184.588 214.657 184.637 214.706C184.686 214.755 184.71 214.853 184.71 215.009Z" fill="white"/>
<path d="M191.29 218.664H190.522C190.301 218.664 190.105 218.68 189.934 218.721C189.77 218.762 189.623 218.819 189.517 218.901C189.402 218.983 189.321 219.073 189.271 219.179C189.214 219.285 189.19 219.408 189.19 219.555C189.19 219.8 189.263 219.988 189.419 220.136C189.574 220.283 189.786 220.356 190.073 220.356C190.293 220.356 190.498 220.299 190.694 220.185C190.882 220.07 191.086 219.898 191.299 219.661V218.672L191.29 218.664ZM191.846 220.651C191.846 220.683 191.838 220.708 191.814 220.724C191.797 220.741 191.765 220.757 191.732 220.765C191.699 220.773 191.658 220.773 191.601 220.773C191.552 220.773 191.503 220.773 191.462 220.765C191.421 220.757 191.397 220.749 191.372 220.724C191.356 220.708 191.339 220.683 191.339 220.651V220.176C191.151 220.381 190.939 220.536 190.71 220.651C190.481 220.765 190.244 220.814 189.999 220.814C189.778 220.814 189.582 220.79 189.402 220.724C189.231 220.667 189.075 220.585 188.961 220.479C188.838 220.373 188.748 220.242 188.683 220.087C188.618 219.931 188.585 219.759 188.585 219.571C188.585 219.342 188.634 219.138 188.732 218.966C188.83 218.795 188.961 218.647 189.141 218.533C189.321 218.418 189.533 218.328 189.778 218.271C190.023 218.214 190.301 218.181 190.604 218.181H191.274V217.821C191.274 217.642 191.258 217.478 191.217 217.347C191.176 217.208 191.119 217.094 191.037 217.004C190.955 216.914 190.841 216.84 190.71 216.791C190.579 216.742 190.416 216.718 190.22 216.718C190.032 216.718 189.868 216.742 189.713 216.783C189.566 216.832 189.435 216.881 189.321 216.938C189.206 216.996 189.116 217.045 189.043 217.086C188.969 217.135 188.92 217.151 188.887 217.151C188.871 217.151 188.855 217.151 188.838 217.143C188.822 217.135 188.806 217.126 188.797 217.11C188.789 217.094 188.781 217.069 188.773 217.045C188.765 217.02 188.765 216.987 188.765 216.947C188.765 216.881 188.773 216.832 188.781 216.791C188.789 216.75 188.814 216.709 188.855 216.677C188.895 216.636 188.961 216.595 189.059 216.538C189.157 216.489 189.271 216.44 189.402 216.39C189.533 216.341 189.672 216.309 189.819 216.284C189.966 216.26 190.113 216.243 190.269 216.243C190.555 216.243 190.8 216.276 191.004 216.35C191.201 216.423 191.364 216.521 191.487 216.652C191.609 216.783 191.699 216.947 191.748 217.135C191.797 217.323 191.83 217.543 191.83 217.781V220.634L191.846 220.651Z" fill="white"/>
<path d="M15.2316 196.038C15.2316 196.193 15.2234 196.324 15.1989 196.438C15.1744 196.553 15.1417 196.651 15.0927 196.733C15.0436 196.815 14.9864 196.872 14.921 196.913C14.8556 196.954 14.7902 196.978 14.7085 196.978H4.96514C4.76897 196.978 4.57279 196.896 4.36845 196.741C4.1641 196.586 4.06601 196.291 4.06601 195.874V175.448C4.06601 175.031 4.1641 174.736 4.36845 174.581C4.57279 174.426 4.76897 174.344 4.96514 174.344H14.5614C14.6349 174.344 14.7085 174.36 14.7739 174.409C14.8393 174.45 14.8883 174.507 14.9374 174.589C14.9782 174.671 15.0109 174.769 15.0354 174.892C15.06 175.014 15.0681 175.153 15.0681 175.317C15.0681 175.472 15.06 175.603 15.0354 175.718C15.0109 175.832 14.9782 175.93 14.9374 176.004C14.8965 176.077 14.8393 176.135 14.7739 176.176C14.7085 176.216 14.6431 176.241 14.5614 176.241H6.02776V184.197H13.3843C13.4742 184.197 13.5478 184.214 13.6132 184.263C13.6786 184.304 13.7276 184.361 13.7767 184.434C13.8175 184.508 13.8502 184.606 13.8747 184.729C13.8993 184.851 13.9074 184.999 13.9074 185.154C13.9074 185.309 13.8993 185.44 13.8747 185.546C13.8502 185.661 13.8175 185.751 13.7767 185.816C13.7358 185.89 13.6786 185.939 13.6132 185.972C13.5478 186.004 13.4742 186.021 13.3843 186.021H6.02776V195.04H14.7085C14.7821 195.04 14.8556 195.065 14.921 195.097C14.9864 195.138 15.0436 195.195 15.0927 195.269C15.1417 195.343 15.1744 195.441 15.1989 195.563C15.2234 195.686 15.2316 195.825 15.2316 195.989V196.038Z" fill="white"/>
<path d="M43.587 195.948C43.587 196.16 43.5543 196.332 43.4971 196.471C43.4399 196.61 43.3663 196.725 43.2764 196.815C43.1865 196.904 43.0802 196.962 42.974 196.994C42.8595 197.027 42.7533 197.043 42.6634 197.043H42.2628C42.0503 197.043 41.8541 197.011 41.6743 196.954C41.4945 196.896 41.3228 196.79 41.1594 196.651C40.9959 196.504 40.8242 196.308 40.6608 196.062C40.4973 195.817 40.3093 195.506 40.1049 195.114L32.7729 180.984C32.4051 180.297 32.0454 179.585 31.6694 178.858C31.3016 178.13 30.9501 177.418 30.615 176.732H30.5986C30.6068 177.582 30.615 178.457 30.615 179.348V181.965V196.618C30.615 196.692 30.5986 196.749 30.5659 196.815C30.5332 196.872 30.476 196.921 30.4025 196.954C30.3289 196.986 30.2308 197.019 30.1082 197.043C29.9856 197.068 29.8303 197.076 29.6341 197.076C29.4543 197.076 29.299 197.068 29.1682 197.043C29.0374 197.019 28.9393 196.994 28.8658 196.954C28.7922 196.921 28.735 196.872 28.7023 196.815C28.6696 196.757 28.6532 196.692 28.6532 196.618V175.44C28.6532 175.023 28.7513 174.728 28.9557 174.573C29.16 174.417 29.3562 174.336 29.5524 174.336H30.3534C30.6068 174.336 30.8275 174.36 30.9991 174.409C31.1708 174.458 31.3261 174.532 31.4651 174.646C31.604 174.761 31.743 174.916 31.8738 175.121C32.0045 175.325 32.1517 175.587 32.3152 175.898L37.9225 186.724C38.274 187.403 38.6091 188.049 38.9279 188.67C39.2467 189.292 39.5491 189.905 39.8515 190.51C40.154 191.107 40.4482 191.704 40.7425 192.284C41.0368 192.865 41.331 193.454 41.6171 194.051H41.6335C41.6253 193.069 41.6171 192.055 41.6171 190.992V187.934V174.769C41.6171 174.695 41.6335 174.638 41.6661 174.581C41.6988 174.524 41.7479 174.475 41.8296 174.434C41.9032 174.393 42.0013 174.36 42.1239 174.344C42.2465 174.328 42.4018 174.319 42.598 174.319C42.7696 174.319 42.9168 174.328 43.0475 174.344C43.1783 174.36 43.2764 174.393 43.35 174.434C43.4235 174.475 43.4808 174.524 43.5216 174.581C43.5625 174.638 43.5789 174.704 43.5789 174.769V195.948H43.587Z" fill="white"/>
<path d="M73.3974 195.948C73.3974 196.16 73.3647 196.332 73.3075 196.471C73.2503 196.61 73.1767 196.725 73.0868 196.815C72.9969 196.904 72.8906 196.962 72.7843 196.994C72.6699 197.027 72.5637 197.043 72.4737 197.043H72.0732C71.8607 197.043 71.6645 197.011 71.4847 196.954C71.3049 196.896 71.1332 196.79 70.9697 196.651C70.8063 196.504 70.6346 196.308 70.4711 196.062C70.3076 195.817 70.1196 195.506 69.9153 195.114L62.5833 180.984C62.2154 180.297 61.8558 179.585 61.4798 178.858C61.112 178.13 60.7605 177.418 60.4253 176.732H60.409C60.4172 177.582 60.4253 178.457 60.4253 179.348V181.965V196.618C60.4253 196.692 60.409 196.749 60.3763 196.815C60.3436 196.872 60.2864 196.921 60.2128 196.954C60.1393 196.986 60.0412 197.019 59.9186 197.043C59.796 197.068 59.6406 197.076 59.4445 197.076C59.2646 197.076 59.1093 197.068 58.9786 197.043C58.8478 197.019 58.7497 196.994 58.6761 196.954C58.6026 196.921 58.5453 196.872 58.5126 196.815C58.4799 196.757 58.4636 196.692 58.4636 196.618V175.44C58.4636 175.023 58.5617 174.728 58.766 174.573C58.9704 174.417 59.1666 174.336 59.3627 174.336H60.1638C60.4172 174.336 60.6379 174.36 60.8095 174.409C60.9812 174.458 61.1365 174.532 61.2754 174.646C61.4144 174.761 61.5533 174.916 61.6841 175.121C61.8149 175.325 61.962 175.587 62.1255 175.898L67.7328 186.724C68.0843 187.403 68.4195 188.049 68.7382 188.67C69.057 189.292 69.3595 189.905 69.6619 190.51C69.9643 191.107 70.2586 191.704 70.5529 192.284C70.8471 192.865 71.1414 193.454 71.4275 194.051H71.4438C71.4356 193.069 71.4275 192.055 71.4275 190.992V187.934V174.769C71.4275 174.695 71.4438 174.638 71.4765 174.581C71.5092 174.524 71.5583 174.475 71.64 174.434C71.7136 174.393 71.8116 174.36 71.9343 174.344C72.0569 174.328 72.2122 174.319 72.4083 174.319C72.58 174.319 72.7271 174.328 72.8579 174.344C72.9887 174.36 73.0868 174.393 73.1603 174.434C73.2339 174.475 73.2911 174.524 73.332 174.581C73.3729 174.638 73.3892 174.704 73.3892 174.769V195.948H73.3974Z" fill="white"/>
<path d="M94.3148 188.065V196.635C94.3148 196.708 94.2984 196.765 94.2657 196.831C94.233 196.888 94.1758 196.937 94.1022 196.97C94.0287 197.003 93.9224 197.035 93.7998 197.06C93.669 197.084 93.5137 197.093 93.3339 197.093C93.1377 197.093 92.9824 197.084 92.8598 197.06C92.7372 197.035 92.6309 197.011 92.5574 196.97C92.4756 196.937 92.4184 196.888 92.3857 196.831C92.353 196.774 92.3367 196.708 92.3367 196.635V188.065L86.3615 175.072C86.2879 174.9 86.2471 174.753 86.2307 174.655C86.2225 174.548 86.2471 174.467 86.3043 174.409C86.3615 174.352 86.4596 174.311 86.5986 174.287C86.7375 174.262 86.9173 174.254 87.1299 174.254C87.3669 174.254 87.5549 174.262 87.702 174.278C87.8492 174.295 87.9636 174.319 88.0535 174.36C88.1434 174.393 88.2088 174.442 88.2579 174.499C88.2987 174.556 88.3478 174.63 88.3886 174.712L91.5683 181.76C91.8707 182.423 92.165 183.11 92.4593 183.821C92.7535 184.533 93.0478 185.252 93.3502 185.972H93.3829C93.6608 185.285 93.9469 184.59 94.233 183.895C94.5191 183.191 94.8134 182.505 95.1158 181.818L98.3282 174.72C98.3609 174.638 98.4017 174.565 98.4426 174.507C98.4835 174.45 98.5407 174.401 98.6224 174.368C98.696 174.336 98.7941 174.303 98.9167 174.287C99.0393 174.27 99.1946 174.262 99.3744 174.262C99.6278 174.262 99.8403 174.27 100.004 174.295C100.167 174.319 100.274 174.36 100.339 174.426C100.404 174.491 100.429 174.573 100.421 174.679C100.413 174.785 100.363 174.916 100.29 175.08L94.3148 188.073V188.065Z" fill="white"/>
<path d="M142.157 190.829C142.157 190.085 142.051 189.422 141.83 188.85C141.609 188.278 141.29 187.803 140.865 187.419C140.44 187.035 139.917 186.74 139.296 186.544C138.675 186.348 137.906 186.25 136.983 186.25H133.239V195.081H137.767C138.43 195.081 139.018 194.991 139.525 194.811C140.032 194.631 140.481 194.361 140.874 194.01C141.266 193.65 141.577 193.208 141.805 192.677C142.034 192.145 142.149 191.532 142.149 190.829H142.157ZM140.808 180.199C140.808 179.602 140.735 179.062 140.579 178.58C140.432 178.097 140.195 177.68 139.868 177.337C139.541 176.993 139.116 176.732 138.593 176.544C138.07 176.355 137.367 176.265 136.484 176.265H133.239V184.377H136.803C137.588 184.377 138.217 184.263 138.699 184.034C139.182 183.805 139.582 183.502 139.885 183.118C140.195 182.734 140.424 182.284 140.579 181.777C140.726 181.27 140.808 180.738 140.808 180.19V180.199ZM144.249 190.657C144.249 191.32 144.176 191.941 144.029 192.513C143.882 193.086 143.677 193.601 143.407 194.067C143.138 194.533 142.811 194.95 142.427 195.31C142.042 195.67 141.601 195.98 141.119 196.226C140.628 196.479 140.105 196.667 139.533 196.79C138.961 196.921 138.307 196.986 137.555 196.986H132.168C131.972 196.986 131.776 196.904 131.572 196.749C131.367 196.594 131.269 196.299 131.269 195.882V175.456C131.269 175.039 131.375 174.745 131.572 174.589C131.776 174.434 131.972 174.352 132.168 174.352H136.639C137.849 174.352 138.83 174.483 139.582 174.753C140.334 175.023 140.947 175.399 141.438 175.898C141.928 176.396 142.288 176.993 142.533 177.696C142.778 178.4 142.893 179.185 142.893 180.051C142.893 180.591 142.835 181.098 142.721 181.589C142.606 182.079 142.443 182.529 142.214 182.954C141.985 183.371 141.707 183.756 141.372 184.091C141.037 184.426 140.637 184.712 140.179 184.95C140.735 185.064 141.258 185.285 141.756 185.604C142.247 185.923 142.68 186.331 143.048 186.822C143.416 187.313 143.71 187.877 143.922 188.523C144.135 189.169 144.241 189.88 144.241 190.649L144.249 190.657Z" fill="white"/>
<path d="M168.992 196.038C168.992 196.193 168.984 196.324 168.959 196.438C168.935 196.553 168.902 196.651 168.853 196.733C168.804 196.815 168.747 196.872 168.681 196.913C168.616 196.954 168.551 196.978 168.469 196.978H158.725C158.529 196.978 158.333 196.896 158.129 196.741C157.924 196.586 157.826 196.291 157.826 195.874V175.448C157.826 175.031 157.924 174.736 158.129 174.581C158.333 174.426 158.529 174.344 158.725 174.344H168.322C168.395 174.344 168.469 174.36 168.534 174.409C168.6 174.45 168.649 174.507 168.698 174.589C168.739 174.671 168.771 174.769 168.796 174.892C168.82 175.014 168.828 175.153 168.828 175.317C168.828 175.472 168.82 175.603 168.796 175.718C168.771 175.832 168.739 175.93 168.698 176.004C168.657 176.077 168.6 176.135 168.534 176.176C168.469 176.216 168.403 176.241 168.322 176.241H159.788V184.197H167.145C167.234 184.197 167.308 184.214 167.373 184.263C167.439 184.304 167.488 184.361 167.537 184.434C167.578 184.508 167.611 184.606 167.635 184.729C167.66 184.851 167.668 184.999 167.668 185.154C167.668 185.309 167.66 185.44 167.635 185.546C167.611 185.661 167.578 185.751 167.537 185.816C167.496 185.89 167.439 185.939 167.373 185.972C167.308 186.004 167.234 186.021 167.145 186.021H159.788V195.04H168.469C168.542 195.04 168.616 195.065 168.681 195.097C168.747 195.138 168.804 195.195 168.853 195.269C168.902 195.343 168.935 195.441 168.959 195.563C168.984 195.686 168.992 195.825 168.992 195.989V196.038Z" fill="white"/>
<path d="M189.868 176.65H189.852L185.928 188.817H193.882L189.86 176.65H189.868ZM198.5 196.267C198.565 196.438 198.59 196.586 198.59 196.692C198.582 196.806 198.549 196.888 198.475 196.945C198.402 197.003 198.296 197.043 198.157 197.06C198.009 197.076 197.83 197.084 197.601 197.084C197.372 197.084 197.2 197.076 197.061 197.06C196.93 197.043 196.824 197.019 196.751 196.978C196.677 196.945 196.62 196.896 196.579 196.839C196.538 196.782 196.505 196.708 196.473 196.626L194.478 190.592H185.348L183.435 196.586C183.411 196.667 183.378 196.741 183.337 196.798C183.296 196.855 183.239 196.904 183.157 196.945C183.084 196.986 182.978 197.019 182.847 197.043C182.716 197.068 182.544 197.076 182.34 197.076C182.111 197.076 181.931 197.068 181.776 197.043C181.629 197.019 181.514 196.978 181.449 196.921C181.375 196.864 181.343 196.782 181.335 196.676C181.326 196.569 181.359 196.43 181.424 196.258L188.707 174.736C188.74 174.646 188.789 174.565 188.855 174.499C188.92 174.434 189.002 174.385 189.1 174.352C189.198 174.319 189.329 174.295 189.468 174.27C189.615 174.254 189.778 174.246 189.958 174.246C190.154 174.246 190.318 174.254 190.465 174.27C190.612 174.287 190.735 174.311 190.833 174.352C190.931 174.385 191.013 174.434 191.07 174.499C191.127 174.565 191.176 174.638 191.209 174.736L198.492 196.258L198.5 196.267Z" fill="white"/>
<path d="M225.458 188.662C225.458 190.036 225.278 191.262 224.918 192.333C224.558 193.405 224.043 194.312 223.381 195.04C222.719 195.776 221.91 196.332 220.97 196.708C220.03 197.084 218.976 197.281 217.807 197.281C216.744 197.281 215.771 197.101 214.872 196.741C213.981 196.381 213.205 195.85 212.559 195.138C211.913 194.435 211.407 193.56 211.047 192.513C210.687 191.467 210.507 190.265 210.507 188.899V174.704C210.507 174.63 210.524 174.573 210.556 174.507C210.589 174.45 210.646 174.401 210.728 174.368C210.81 174.336 210.908 174.303 211.022 174.278C211.137 174.254 211.292 174.246 211.488 174.246C211.668 174.246 211.823 174.254 211.954 174.278C212.085 174.303 212.183 174.328 212.257 174.368C212.33 174.401 212.387 174.45 212.42 174.507C212.453 174.565 212.469 174.63 212.469 174.704V188.556C212.469 189.684 212.592 190.674 212.845 191.532C213.099 192.383 213.458 193.094 213.94 193.658C214.415 194.222 214.995 194.648 215.673 194.934C216.352 195.22 217.12 195.359 217.978 195.359C218.845 195.359 219.621 195.22 220.3 194.95C220.978 194.68 221.559 194.255 222.024 193.699C222.499 193.143 222.858 192.44 223.112 191.606C223.365 190.772 223.488 189.799 223.488 188.678V174.712C223.488 174.638 223.504 174.581 223.537 174.516C223.569 174.458 223.627 174.409 223.7 174.377C223.774 174.344 223.88 174.311 224.003 174.287C224.133 174.262 224.289 174.254 224.468 174.254C224.648 174.254 224.804 174.262 224.934 174.287C225.065 174.311 225.163 174.336 225.237 174.377C225.31 174.409 225.368 174.458 225.4 174.516C225.433 174.573 225.449 174.638 225.449 174.712V188.662H225.458Z" fill="white"/>
<path d="M253.478 175.333C253.478 175.489 253.47 175.62 253.445 175.734C253.421 175.848 253.388 175.947 253.347 176.02C253.306 176.094 253.249 176.151 253.184 176.192C253.118 176.233 253.053 176.257 252.971 176.257H246.767V196.626C246.767 196.7 246.751 196.757 246.718 196.823C246.685 196.88 246.628 196.929 246.555 196.962C246.481 196.994 246.375 197.027 246.252 197.052C246.121 197.076 245.966 197.084 245.786 197.084C245.606 197.084 245.451 197.076 245.32 197.052C245.189 197.027 245.091 197.003 245.018 196.962C244.944 196.929 244.887 196.88 244.854 196.823C244.822 196.765 244.805 196.7 244.805 196.626V176.257H238.601C238.511 176.257 238.446 176.233 238.381 176.192C238.323 176.151 238.274 176.094 238.225 176.02C238.184 175.947 238.152 175.848 238.127 175.734C238.103 175.62 238.094 175.48 238.094 175.333C238.094 175.17 238.103 175.031 238.127 174.908C238.152 174.785 238.184 174.687 238.225 174.606C238.266 174.524 238.315 174.467 238.381 174.426C238.438 174.385 238.511 174.36 238.601 174.36H252.971C253.045 174.36 253.118 174.377 253.184 174.426C253.249 174.467 253.298 174.524 253.347 174.606C253.388 174.687 253.421 174.785 253.445 174.908C253.47 175.031 253.478 175.17 253.478 175.333Z" fill="white"/>
<path d="M273.153 188.065V196.635C273.153 196.708 273.136 196.765 273.103 196.831C273.071 196.888 273.014 196.937 272.94 196.97C272.866 197.003 272.76 197.035 272.638 197.06C272.507 197.084 272.351 197.093 272.172 197.093C271.975 197.093 271.82 197.084 271.698 197.06C271.575 197.035 271.469 197.011 271.395 196.97C271.313 196.937 271.256 196.888 271.223 196.831C271.191 196.774 271.174 196.708 271.174 196.635V188.065L265.199 175.072C265.126 174.9 265.085 174.753 265.068 174.655C265.06 174.548 265.085 174.467 265.142 174.409C265.199 174.352 265.297 174.311 265.436 174.287C265.575 174.262 265.755 174.254 265.968 174.254C266.205 174.254 266.393 174.262 266.54 174.278C266.687 174.295 266.801 174.319 266.891 174.36C266.981 174.393 267.047 174.442 267.096 174.499C267.137 174.556 267.186 174.63 267.226 174.712L270.406 181.76C270.709 182.423 271.003 183.11 271.297 183.821C271.591 184.533 271.886 185.252 272.188 185.972H272.221C272.499 185.285 272.785 184.59 273.071 183.895C273.357 183.191 273.651 182.505 273.954 181.818L277.166 174.72C277.199 174.638 277.231 174.565 277.28 174.507C277.321 174.45 277.378 174.401 277.46 174.368C277.534 174.336 277.632 174.303 277.754 174.287C277.877 174.27 278.032 174.262 278.212 174.262C278.466 174.262 278.678 174.27 278.842 174.295C279.005 174.319 279.111 174.36 279.177 174.426C279.242 174.491 279.267 174.573 279.258 174.679C279.25 174.785 279.201 174.916 279.128 175.08L273.153 188.073V188.065Z" fill="white"/>
<path d="M89.5573 110.015V123.793C89.5573 129.288 89.6962 133.287 89.9741 135.797C90.2521 138.307 90.7915 140.401 91.6008 142.085C92.9658 144.972 95.0338 147.09 97.8211 148.431C100.608 149.772 104.287 150.442 108.856 150.442C113.67 150.442 117.692 149.829 120.945 148.611C124.19 147.384 126.839 145.495 128.882 142.927C130.329 141.202 131.498 139.24 132.397 137.032C133.296 134.824 134.13 131.921 134.89 128.307L136.271 128.364L135.487 152.307H63.7521V150.925C66.0408 150.802 67.8881 150.483 69.3104 149.96C70.7327 149.436 72.0078 148.594 73.1276 147.433C74.3701 146.149 75.2202 144.514 75.6861 142.527C76.1438 140.54 76.3809 137.506 76.3809 133.417V89.0812C76.3809 84.9927 76.152 81.9508 75.6861 79.972C75.2283 77.9849 74.3701 76.3495 73.1276 75.0657C72.0487 73.9045 70.7899 73.0623 69.3676 72.539C67.9454 72.0156 66.0735 71.6967 63.744 71.5741V70.1921H128.384L129.405 90.0461L128.024 90.1034C127.501 86.7344 126.642 83.946 125.441 81.7382C124.239 79.5304 122.498 77.5842 120.21 75.8998C118.321 74.4933 116.098 73.5039 113.54 72.9233C110.973 72.3427 107.564 72.0483 103.314 72.0483H89.5409V108.142V110.006L89.5573 110.015Z" fill="white"/>
<path d="M193.301 145.144C189.549 148.676 184.449 150.434 178 150.434C173.03 150.434 169.523 149.093 167.48 146.403C166.515 145.119 165.829 143.557 165.404 141.709C164.979 139.869 164.774 137.441 164.774 134.432V109.647H175.539C183.239 109.647 188.887 111.127 192.492 114.095C194.454 115.698 196.023 117.996 197.184 120.98C198.345 123.965 198.925 127.203 198.925 130.695C198.925 136.795 197.053 141.603 193.301 145.135V145.144ZM164.766 72.0566H170.357C174.648 72.0566 177.844 72.2938 179.945 72.7762C182.046 73.2587 183.926 74.1581 185.569 75.4828C187.457 77.0038 188.969 79.1462 190.105 81.8855C191.25 84.633 191.822 87.5277 191.822 90.5778C191.822 93.4643 191.274 96.1055 190.171 98.485C189.067 100.873 187.498 102.827 185.454 104.348C184.375 105.108 183.182 105.714 181.874 106.155C180.574 106.597 178.858 106.981 176.733 107.3C174.289 107.619 171.918 107.782 169.638 107.782H164.766V72.0485V72.0566ZM219.025 120.923C217.602 117.816 215.608 115.215 213.041 113.13C211.317 111.765 207.769 109.957 205.113 109.279C201.066 108.248 197.535 107.782 190.62 107.423C193.424 106.425 195.574 105.509 197.053 104.683C198.533 103.866 199.857 102.827 201.026 101.584C204.271 98.2152 205.897 93.9058 205.897 88.648C205.897 85.4017 205.186 82.4743 203.764 79.8658C202.342 77.2573 200.323 75.1558 197.723 73.553C194.715 71.7459 190.931 70.6665 186.362 70.3067C185.119 70.225 182.495 70.1841 178.482 70.1841H138.977V71.566C141.266 71.6887 143.13 72.0076 144.568 72.5309C146.015 73.0542 147.274 73.8965 148.353 75.0576C149.636 76.3414 150.494 77.9687 150.936 79.9312C151.377 81.8937 151.598 84.9437 151.598 89.0732V133.409C151.598 137.539 151.377 140.589 150.936 142.551C150.494 144.514 149.636 146.141 148.353 147.425C147.274 148.545 146.015 149.379 144.593 149.919C143.17 150.459 141.299 150.794 138.969 150.908V152.29H182.928C188.863 152.29 195.598 152.274 198.925 152.037C205.227 151.595 209.829 150.426 212.87 148.316C215.493 146.493 217.512 144.04 218.976 141.006C220.439 137.98 221.174 134.636 221.174 130.989C221.174 127.383 220.463 124.022 219.041 120.915L219.025 120.923Z" fill="white"/>
<path d="M116.237 106.989C112.592 106.989 109.845 106.752 107.998 106.27C106.159 105.787 104.655 104.928 103.486 103.686C102.366 102.524 101.532 101.151 100.993 99.5643C100.453 97.9779 100.004 95.6475 99.636 92.5565H98.1075V124.856H98.4917H99.636H99.8731C100.233 121.765 100.764 119.279 101.467 117.399C102.17 115.518 103.143 113.907 104.385 112.59C105.587 111.307 107.148 110.366 109.077 109.761C110.998 109.156 113.45 108.862 116.409 108.862H155.865V106.997H116.229L116.237 106.989Z" fill="white"/>
<path d="M173.152 21.7674C172.074 21.7674 171.191 22.7569 171.191 23.9752C171.191 24.4986 171.354 25.0056 171.657 25.3981C169.965 27.6631 168.199 29.8464 166.409 31.8743C164.218 34.3438 161.921 36.6825 159.567 38.8085C158.807 34.1803 158.145 29.4539 157.614 24.7602C157.262 21.6938 156.96 18.5538 156.698 15.4384C157.589 15.2258 158.26 14.3344 158.26 13.2796C158.26 12.0612 157.377 11.0718 156.298 11.0718C155.219 11.0718 154.336 12.0612 154.336 13.2796C154.336 13.8356 154.516 14.359 154.843 14.7678C153.519 17.6216 152.105 20.41 150.641 23.0512C149.211 25.6352 147.691 28.1619 146.121 30.566C144.928 26.273 143.792 21.8901 142.762 17.5153C141.805 13.4677 140.408 6.7461 139.868 4.17032C140.514 3.79417 140.931 3.04188 140.931 2.20782C140.931 0.989429 140.048 0 138.969 0C137.89 0 137.007 0.989429 137.007 2.20782C137.007 3.05006 137.424 3.80235 138.07 4.17032C137.539 6.7461 136.141 13.4677 135.176 17.5153C134.138 21.8901 133.01 26.273 131.817 30.566C130.247 28.1619 128.727 25.6352 127.297 23.0512C125.874 20.4836 124.501 17.7852 123.218 15.0295C123.692 14.6125 123.978 13.9747 123.978 13.2796C123.978 12.0612 123.095 11.0718 122.016 11.0718C120.937 11.0718 120.055 12.0612 120.055 13.2796C120.055 14.1791 120.537 14.9723 121.248 15.3157C120.986 18.4802 120.684 21.6611 120.324 24.7684C119.785 29.4621 119.131 34.1803 118.371 38.8167C116.017 36.6825 113.72 34.352 111.529 31.8825C109.739 29.8546 107.973 27.6876 106.29 25.4226C106.584 25.0301 106.747 24.5313 106.747 24.008C106.747 22.7896 105.865 21.8001 104.786 21.8001C103.707 21.8001 102.824 22.7896 102.824 24.008C102.824 25.2509 103.748 26.2648 104.859 26.2158C105.448 29.2331 105.971 32.2995 106.412 35.3414C106.944 38.9802 107.385 42.6926 107.728 46.3887L107.761 46.7239H170.185L170.218 46.3887C170.553 42.7008 170.995 38.9802 171.534 35.3414C171.984 32.2914 172.507 29.2168 173.095 26.1912C173.12 26.1912 173.144 26.1912 173.161 26.1912C174.24 26.1912 175.122 25.2018 175.122 23.9834C175.122 22.765 174.24 21.7756 173.161 21.7756L173.152 21.7674Z" fill="white"/>
<path d="M108.472 55.6615H169.466L170.251 50.6571H107.696L108.472 55.6615Z" fill="white"/>
</g>
<defs>
<clipPath id="clip0_333_762">
<rect width="282" height="222" fill="white"/>
</clipPath>
</defs>
</svg>
