<svg width="27" height="28" viewBox="0 0 27 28" fill="none" xmlns="http://www.w3.org/2000/svg">
<path d="M19.7987 12.1782C19.7987 15.9782 16.8484 19.0587 13.209 19.0587C9.56967 19.0587 6.61937 15.9782 6.61937 12.1782C6.61937 11.1074 6.86043 10.0979 7.27797 9.19458H0V25.2849C0 26.7599 1.15576 27.9666 2.56835 27.9666H23.849C25.2616 27.9666 26.4173 26.7599 26.4173 25.2849V9.19458H19.1397C19.5576 10.0979 19.7987 11.1074 19.7987 12.1782Z" fill="black"/>
<path d="M23.849 0H2.56835C1.15576 0 0 1.20677 0 2.68172V8.04516H7.94904C9.15177 6.37905 11.0567 5.29755 13.2087 5.29755C15.3606 5.29755 17.2656 6.37905 18.4683 8.04516H26.4173V2.68172C26.4173 1.20677 25.2616 0 23.849 0ZM2.11192 6.78705H1.15576V2.91963C1.15576 2.24307 1.55055 1.66343 2.11228 1.4171L2.11192 6.78705ZM3.67861 6.78705H2.77272V1.29029H3.67861V6.78705ZM5.24494 6.78705H4.33904V1.29029H5.24494V6.78705ZM6.81016 2.91963V5.15772V6.78705H5.90537V1.29029H6.81016V2.91963ZM25.0785 5.15772C25.0785 6.05801 24.3799 6.78705 23.5187 6.78705H20.9838C20.1223 6.78705 19.4237 6.05801 19.4237 5.15772V2.91963C19.4237 2.01934 20.1223 1.29029 20.9838 1.29029H23.5187C24.3802 1.29029 25.0785 2.01934 25.0785 2.91963V5.15772Z" fill="black"/>
<path d="M13.209 18.2541C16.4143 18.2541 19.0128 15.5398 19.0128 12.1937C19.0128 8.84734 16.4147 6.13306 13.209 6.13306C10.003 6.13306 7.40454 8.84734 7.40454 12.1937C7.40454 15.5394 10.003 18.2541 13.209 18.2541ZM13.2086 7.36512C15.7623 7.36512 17.8331 9.52697 17.8331 12.1937C17.8331 14.8601 15.7627 17.0224 13.2086 17.0224C10.6546 17.0224 8.58415 14.8605 8.58415 12.1937C8.58451 9.52658 10.655 7.36512 13.2086 7.36512Z" fill="black"/>
</svg>
