<svg width="43" height="42" viewBox="0 0 43 42" fill="none" xmlns="http://www.w3.org/2000/svg">
<g id="logo" clip-path="url(#clip0_387_19)">
<g id="&#208;&#161;&#208;&#187;&#208;&#190;&#208;&#185;_x0020_1">
<path id="Vector" d="M7.04611 34.1363C7.04611 35.6504 7.08642 36.7535 7.163 37.4454C7.23958 38.1373 7.38871 38.7153 7.60637 39.1793C7.97719 39.977 8.54551 40.5591 9.3073 40.9294C10.0691 41.2998 11.0727 41.4871 12.3222 41.4871C13.6362 41.4871 14.7366 41.3202 15.6233 40.9824C16.5101 40.6445 17.2315 40.1235 17.7918 39.4153C18.1868 38.9391 18.5052 38.3978 18.7511 37.7913C18.997 37.1849 19.2227 36.3831 19.4323 35.3859L19.8111 35.4022L19.5975 42.004H0.000549316V41.6214C0.625299 41.5888 1.13316 41.4993 1.5201 41.3568C1.90704 41.2144 2.25771 40.9824 2.56404 40.6608C2.90261 40.3067 3.13639 39.8549 3.26134 39.3095C3.38629 38.7641 3.45078 37.9257 3.45078 36.7982V24.5715C3.45078 23.444 3.38629 22.6056 3.26134 22.0602C3.13639 21.5107 2.90261 21.063 2.56404 20.7089C2.2698 20.3873 1.9272 20.1553 1.53622 20.0129C1.14928 19.8704 0.63336 19.7809 0.000549316 19.7483V19.3657H17.6588L17.9369 24.8401L17.558 24.8564C17.4169 23.9284 17.1791 23.1591 16.8527 22.5527C16.5221 21.9462 16.0465 21.4089 15.4218 20.9449C14.9059 20.5583 14.2972 20.2856 13.5999 20.1228C12.8986 19.964 11.9675 19.8826 10.8067 19.8826H7.04611V29.8342V34.1486V34.1363Z" fill="#2B2A29"/>
<path id="Vector_2" d="M35.3896 40.0259C34.3658 40.9987 32.9712 41.4871 31.2098 41.4871C29.8515 41.4871 28.8922 41.1167 28.336 40.376C28.074 40.0219 27.8845 39.5904 27.7676 39.0817C27.6508 38.5729 27.5943 37.9054 27.5943 37.0751V30.2413H30.5367C32.6407 30.2413 34.1844 30.6524 35.1679 31.4705C35.704 31.9141 36.1312 32.545 36.4496 33.3712C36.7681 34.1934 36.9253 35.0888 36.9253 36.0494C36.9253 37.7304 36.4134 39.0572 35.3896 40.03V40.0259ZM27.5943 19.8705H29.1219C30.2949 19.8705 31.1655 19.9356 31.7419 20.0699C32.3182 20.2043 32.8301 20.4525 33.2775 20.8148C33.7935 21.234 34.2046 21.8242 34.519 22.5812C34.8293 23.3383 34.9865 24.136 34.9865 24.9786C34.9865 25.7763 34.8374 26.5008 34.5351 27.1602C34.2328 27.8195 33.8055 28.3568 33.2453 28.776C32.9511 28.9877 32.6246 29.1505 32.2699 29.2726C31.9152 29.3947 31.4476 29.5005 30.8672 29.586C30.1981 29.6755 29.5532 29.7203 28.9285 29.7203H27.5984V19.8664L27.5943 19.8705ZM42.419 33.3468C42.0321 32.488 41.4839 31.7757 40.7826 31.1978C40.311 30.8233 39.3436 30.3227 38.6181 30.1355C37.5137 29.8505 36.5504 29.7244 34.66 29.6226C35.4259 29.3458 36.0143 29.0935 36.4174 28.8696C36.8245 28.6417 37.1832 28.3568 37.5016 28.0149C38.3884 27.0869 38.8318 25.8984 38.8318 24.4494C38.8318 23.554 38.6383 22.7481 38.2473 22.0277C37.8604 21.3073 37.3082 20.7293 36.5947 20.2857C35.7725 19.7891 34.7366 19.4879 33.4912 19.3902C33.1526 19.3699 32.4351 19.3577 31.3388 19.3577H20.5447V19.7403C21.1695 19.7728 21.6773 19.8624 22.0724 20.0048C22.4674 20.1473 22.81 20.3793 23.1082 20.7008C23.4589 21.0549 23.6927 21.5026 23.8136 22.044C23.9345 22.5853 23.995 23.4278 23.995 24.5675V36.7942C23.995 37.9339 23.9345 38.7723 23.8136 39.3177C23.6927 39.8591 23.4589 40.3068 23.1082 40.6609C22.814 40.9702 22.4714 41.1982 22.0804 41.3487C21.6935 41.4993 21.1816 41.5889 20.5447 41.6215V42.004H32.552C34.1723 42.004 36.0143 42 36.9212 41.9349C38.6423 41.8127 39.8999 41.4912 40.7302 40.9092C41.4476 40.4085 41.9958 39.7288 42.3989 38.8944C42.7979 38.0601 42.9994 37.1402 42.9994 36.1308C42.9994 35.1336 42.806 34.2097 42.415 33.3509L42.419 33.3468Z" fill="#2B2A29"/>
<path id="Vector_3" d="M14.3376 29.5004C13.342 29.5004 12.5923 29.4353 12.0885 29.301C11.5846 29.1666 11.1735 28.9306 10.8551 28.5887C10.5488 28.2671 10.323 27.8886 10.1739 27.4531C10.0248 27.0176 9.90386 26.3704 9.80309 25.5198H9.38794V34.4294H9.49274H9.80309H9.86759C9.96432 33.5787 10.1135 32.8908 10.3029 32.3739C10.4964 31.8529 10.7584 31.4134 11.101 31.0471C11.4315 30.6929 11.8547 30.4325 12.3827 30.2656C12.9067 30.0987 13.5758 30.0173 14.3859 30.0173H25.1639V29.5045H14.3376V29.5004Z" fill="#2B2A29"/>
<path id="Vector_4" d="M29.8837 6.00332C29.5895 6.00332 29.3477 6.27603 29.3477 6.61385C29.3477 6.76038 29.392 6.89876 29.4726 7.00866C29.0091 7.63546 28.5295 8.23377 28.0377 8.79546C27.4412 9.47924 26.8124 10.1223 26.1675 10.7084C25.9579 9.4304 25.7806 8.12795 25.6355 6.83364C25.5387 5.98704 25.4541 5.12417 25.3856 4.2613C25.6274 4.20431 25.8128 3.95603 25.8128 3.66705C25.8128 3.32923 25.571 3.05653 25.2767 3.05653C24.9825 3.05653 24.7407 3.32923 24.7407 3.66705C24.7407 3.81765 24.789 3.96417 24.8777 4.07814C24.5149 4.86368 24.132 5.63294 23.729 6.3615C23.338 7.07378 22.9228 7.76978 22.4916 8.43321C22.1651 7.24879 21.8547 6.03996 21.5726 4.83519C21.3106 3.71996 20.9277 1.86397 20.7826 1.15576C20.9599 1.05401 21.0728 0.84643 21.0728 0.614431C21.0728 0.276607 20.8309 0.00390625 20.5367 0.00390625C20.2425 0.00390625 20.0006 0.276607 20.0006 0.614431C20.0006 0.84643 20.1135 1.05401 20.2908 1.15576C20.1457 1.86804 19.7628 3.71996 19.5008 4.83519C19.2187 6.03996 18.9083 7.24879 18.5818 8.43321C18.1506 7.76978 17.7354 7.07378 17.3444 6.3615C16.9575 5.65329 16.5826 4.90845 16.2279 4.14733C16.3569 4.03337 16.4375 3.85428 16.4375 3.66705C16.4375 3.32923 16.1957 3.05653 15.9015 3.05653C15.6072 3.05653 15.3654 3.32923 15.3654 3.66705C15.3654 3.91533 15.4944 4.13512 15.6919 4.22873C15.6233 5.09975 15.5347 5.9789 15.4379 6.83771C15.2928 8.13202 15.1115 9.43447 14.9059 10.7125C14.265 10.1264 13.6362 9.48331 13.0357 8.79953C12.548 8.24191 12.0643 7.6436 11.6048 7.0168C11.6854 6.9069 11.7297 6.76852 11.7297 6.62606C11.7297 6.28824 11.4879 6.01554 11.1937 6.01554C10.8994 6.01554 10.6576 6.28824 10.6576 6.62606C10.6576 6.96795 10.9115 7.2488 11.2138 7.23658C11.375 8.0669 11.5161 8.91349 11.6411 9.75194C11.7862 10.7573 11.9071 11.7789 11.9998 12.7964L12.0079 12.886H29.0615L29.0696 12.7964C29.1623 11.7789 29.2832 10.7532 29.4283 9.75194C29.5492 8.90942 29.6943 8.06283 29.8555 7.22844C29.8636 7.22844 29.8676 7.22844 29.8757 7.22844C30.1699 7.22844 30.4118 6.95574 30.4118 6.61792C30.4118 6.2801 30.1699 6.0074 29.8757 6.0074L29.8837 6.00332Z" fill="#2B2A29"/>
<path id="Vector_5" d="M12.2134 15.3485H28.8761L29.0897 13.9688H11.9998L12.2134 15.3485Z" fill="#2B2A29"/>
</g>
</g>
<defs>
<clipPath id="clip0_387_19">
<rect width="43" height="42" fill="white"/>
</clipPath>
</defs>
</svg>
